<svg width="175" height="40" viewBox="0 0 175 40" fill="none" xmlns="http://www.w3.org/2000/svg">
<path d="M30.1857 3.22361H28.0558V0.949516C28.0496 0.695529 27.9437 0.454034 27.7608 0.276616C27.5779 0.0991986 27.3324 -7.55366e-05 27.0769 4.31239e-08H3.90155C3.64147 -3.00338e-06 3.39197 0.102384 3.20762 0.28477C3.02327 0.467155 2.91907 0.714695 2.91781 0.973254V3.22361H1.0888C0.798292 3.22859 0.521374 3.34683 0.317714 3.55285C0.114055 3.75887 -4.31769e-05 4.03619 1.22567e-08 4.32505V9.65658C1.22567e-08 9.9487 0.116725 10.2289 0.324498 10.4354C0.532271 10.642 0.814072 10.758 1.10791 10.758H3.26164L3.45266 13.0274C2.6265 13.2885 2.08688 13.8107 2.16328 14.3899L4.77546 33.9974C4.80541 34.1515 4.86605 34.2981 4.9538 34.4285C5.04155 34.559 5.15464 34.6707 5.28643 34.757L5.53953 37.71C5.62669 38.3575 5.95226 38.9499 6.45328 39.3726C6.95431 39.7953 7.59519 40.0182 8.252 39.9984H23.5C24.1715 40.0218 24.8266 39.789 25.331 39.3476C25.8353 38.9062 26.1507 38.2897 26.2125 37.6246L26.3796 34.8282C26.5479 34.7393 26.6932 34.6129 26.8042 34.4589C26.9152 34.3049 26.9889 34.1274 27.0196 33.9404L28.8151 14.3377C28.8629 13.8012 28.3853 13.317 27.6499 13.0511L27.7836 10.739H30.1714C30.4652 10.739 30.747 10.623 30.9548 10.4164C31.1625 10.2099 31.2793 9.92971 31.2793 9.63759V4.32505C31.2793 4.03538 31.1645 3.75736 30.9599 3.5512C30.7552 3.34505 30.477 3.22735 30.1857 3.22361ZM25.2479 37.5866C25.1942 37.9973 24.9861 38.3725 24.6653 38.6368C24.3446 38.9011 23.935 39.0347 23.5191 39.0109H8.2711C7.86154 39.0322 7.45857 38.9018 7.14014 38.6448C6.8217 38.3879 6.61042 38.0227 6.54716 37.6198L6.33703 35.208C6.65001 35.2815 6.97056 35.3181 7.29213 35.3172H24.5172C24.8058 35.3163 25.0937 35.2877 25.3768 35.2318L25.2479 37.5866ZM14.9567 25.2429C16.1697 26.9283 16.4371 28.6659 15.4343 30.5174C15.3437 30.719 15.189 30.8853 14.994 30.9908C14.7989 31.0963 14.5744 31.1352 14.355 31.1014C13.6164 31.0976 12.8943 30.8831 12.2747 30.4833C11.655 30.0836 11.1638 29.5154 10.8594 28.8463C10.1666 27.5624 9.8121 26.125 9.8288 24.6681C9.8455 23.2112 10.2329 21.7822 10.9549 20.5143C11.3043 19.8173 11.847 19.2343 12.5188 18.8339C13.1906 18.4335 13.9636 18.2324 14.7466 18.2544C14.5413 18.9191 14.4028 19.4746 14.1927 20.0063C13.4525 21.8484 13.782 23.586 14.9567 25.2191V25.2429ZM16.3894 25.5277C14.5222 23.3723 14.6511 21.1077 15.5871 18.7055C15.8116 18.131 16.1172 18.0503 16.6807 18.1832C17.2452 18.3027 17.7792 18.5358 18.2498 18.8681C18.7204 19.2004 19.1176 19.6249 19.417 20.1155C21.2317 23.0542 21.1648 26.012 19.2929 28.908C18.9665 29.417 18.5396 29.8549 18.0381 30.1952C17.5366 30.5355 16.9708 30.7711 16.3751 30.8878C16.59 30.2896 16.7428 29.8433 16.9147 29.4065C17.4734 28.0107 17.4066 26.6529 16.4085 25.504L16.3894 25.5277ZM26.6709 12.8849C26.5516 12.8849 26.4274 12.8849 26.3032 12.8849H4.41252L4.23106 10.7913H26.8142L26.6709 12.8849Z" fill="#014040"/>
<path d="M45.2779 7.32926V5.48321C45.3177 4.9031 45.1265 4.33067 44.7456 3.88946C44.5535 3.6961 44.3223 3.54561 44.0672 3.44799C43.8122 3.35038 43.5391 3.30789 43.2662 3.32334C42.9924 3.3074 42.7183 3.34964 42.4621 3.44726C42.206 3.54487 41.9737 3.69562 41.7807 3.88946C41.4027 4.3323 41.2119 4.90352 41.2484 5.48321V17.421C41.2116 18.0026 41.4023 18.5758 41.7807 19.0209C41.9746 19.2134 42.2071 19.3633 42.463 19.4609C42.7189 19.5584 42.9926 19.6014 43.2662 19.587C43.539 19.6009 43.8116 19.5577 44.0664 19.4601C44.3212 19.3626 44.5526 19.213 44.7456 19.0209C45.1263 18.5771 45.3174 18.0029 45.2779 17.421V13.5381H43.2662V10.406H48.6203V17.421C48.6507 18.1275 48.5351 18.8328 48.2807 19.4932C48.0262 20.1536 47.6383 20.7552 47.141 21.2607C46.6274 21.751 46.0194 22.1329 45.3535 22.3836C44.6876 22.6342 43.9776 22.7483 43.2662 22.7191C42.5539 22.7488 41.8428 22.6349 41.1759 22.3843C40.5089 22.1337 39.8999 21.7515 39.3854 21.2607C38.888 20.7552 38.5001 20.1536 38.2456 19.4932C37.9912 18.8328 37.8756 18.1275 37.906 17.421V5.47706C37.8756 4.77051 37.9912 4.06525 38.2456 3.40484C38.5001 2.74443 38.888 2.14286 39.3854 1.63729C39.9015 1.14964 40.5111 0.770287 41.1779 0.521847C41.8446 0.273407 42.5549 0.160965 43.2662 0.191221C43.9771 0.162262 44.6865 0.275923 45.3522 0.525424C46.0179 0.774926 46.6263 1.15516 47.141 1.64344C47.6383 2.14902 48.0262 2.75058 48.2807 3.41099C48.5351 4.07141 48.6507 4.77666 48.6203 5.48321V7.32926H45.2779Z" fill="#014040"/>
<path d="M51.8699 0.498901H61.3524V3.63102H55.237V9.74143H60.1268V12.8736H55.237V19.2978H61.3833V22.4299H51.8699V0.498901Z" fill="#014040"/>
<path d="M63.0855 0.498901H73.7378V3.63102H70.0921V22.4299H66.7497V3.63102H63.0855V0.498901Z" fill="#014040"/>
<path d="M89.2119 17.5748H85.6219L84.8977 22.4299H81.5553L85.2134 0.498901H89.6885L93.3403 22.4299H89.936L89.2119 17.5748ZM88.7724 14.375L87.4231 5.19401L86.0613 14.375H88.7724Z" fill="#014040"/>
<path d="M103.392 21.3039C102.906 20.8081 102.527 20.2189 102.278 19.5724C102.029 18.926 101.915 18.2358 101.944 17.5441V5.38481C101.92 4.68651 102.037 3.99053 102.289 3.33833C102.541 2.68613 102.923 2.09106 103.411 1.58858C103.9 1.0861 104.485 0.686495 105.132 0.413573C105.779 0.140652 106.474 0 107.177 0C107.88 0 108.576 0.140652 109.223 0.413573C109.87 0.686495 110.455 1.0861 110.943 1.58858C111.431 2.09106 111.813 2.68613 112.065 3.33833C112.317 3.99053 112.435 4.68651 112.411 5.38481V7.95696H109.13V5.38481C109.157 4.83443 108.965 4.29558 108.598 3.88335C108.421 3.6962 108.205 3.54887 107.966 3.45123C107.727 3.35359 107.47 3.30791 107.211 3.31724C106.953 3.30669 106.695 3.35182 106.456 3.44954C106.216 3.54725 106.001 3.69524 105.825 3.88335C105.452 4.29323 105.259 4.83319 105.286 5.38481V17.5441C105.26 18.0955 105.454 18.635 105.825 19.0455C106.002 19.2327 106.217 19.38 106.456 19.4777C106.696 19.5753 106.953 19.621 107.211 19.6117C107.469 19.6183 107.726 19.5713 107.964 19.4739C108.203 19.3764 108.419 19.2305 108.598 19.0455C108.965 18.633 109.156 18.0944 109.13 17.5441V14.4058H112.411V17.5441C112.387 18.5722 112.065 19.5716 111.482 20.4214C110.9 21.2713 110.082 21.9352 109.128 22.3329C108.174 22.7306 107.125 22.845 106.107 22.6624C105.089 22.4798 104.146 22.0079 103.392 21.3039Z" fill="#014040"/>
<path d="M116.787 21.2855C116.289 20.7799 115.901 20.1783 115.647 19.5179C115.392 18.8575 115.277 18.1522 115.307 17.4457V5.47716C115.277 4.77061 115.392 4.06536 115.647 3.40494C115.901 2.74453 116.289 2.14297 116.787 1.63739C117.859 0.70187 119.237 0.186035 120.664 0.186035C122.091 0.186035 123.47 0.70187 124.542 1.63739C125.041 2.1421 125.429 2.74352 125.684 3.40415C125.938 4.06478 126.053 4.77044 126.021 5.47716V17.4211C126.053 18.1278 125.938 18.8335 125.684 19.4941C125.429 20.1547 125.041 20.7561 124.542 21.2608C123.471 22.2001 122.092 22.7183 120.664 22.7183C119.236 22.7183 117.857 22.2001 116.787 21.2608V21.2855ZM122.147 19.0456C122.343 18.8247 122.493 18.5675 122.589 18.2886C122.684 18.0098 122.723 17.715 122.704 17.4211V5.47716C122.741 4.89629 122.548 4.32401 122.165 3.88341C121.758 3.51931 121.23 3.31784 120.683 3.31784C120.135 3.31784 119.607 3.51931 119.201 3.88341C118.822 4.32625 118.632 4.89747 118.668 5.47716V17.4211C118.631 18.0027 118.822 18.5759 119.201 19.021C119.607 19.3851 120.135 19.5865 120.683 19.5865C121.23 19.5865 121.758 19.3851 122.165 19.021L122.147 19.0456Z" fill="#014040"/>
<path d="M129.395 0.498901H138.723V3.63102H132.737V10.0368H137.466V13.1689H132.737V22.3992H129.395V0.498901Z" fill="#014040"/>
<path d="M141.31 0.498901H150.638V3.63102H144.646V10.0368H149.375V13.1689H144.646V22.3992H141.31V0.498901Z" fill="#014040"/>
<path d="M153.219 0.498901H162.707V3.63102H156.561V9.74143H161.445V12.8736H156.561V19.2978H162.707V22.4299H153.219V0.498901Z" fill="#014040"/>
<path d="M165.511 0.498901H175V3.63102H168.854V9.74143H173.737V12.8736H168.854V19.2978H175V22.4299H165.511V0.498901Z" fill="#014040"/>
<path d="M42.9692 38.9581C42.7851 39.2782 42.5122 39.5389 42.1831 39.7089C41.7801 39.9156 41.3302 40.0152 40.8771 39.9981C40.4149 40.0055 39.9567 39.9131 39.5339 39.7273C39.1596 39.5546 38.8358 39.2899 38.5931 38.9581C38.3602 38.6391 38.2209 38.2621 38.1908 37.869H39.2368C39.2604 38.0889 39.3368 38.2999 39.4597 38.4843C39.593 38.6953 39.7784 38.869 39.9981 38.9889C40.2592 39.1257 40.5512 39.1935 40.8461 39.1858C41.0261 39.1985 41.2068 39.1744 41.3771 39.1152C41.5474 39.0559 41.7037 38.9627 41.8365 38.8412C41.9517 38.7259 42.042 38.5884 42.1016 38.437C42.1612 38.2856 42.189 38.1237 42.1831 37.9613C42.1946 37.6905 42.109 37.4245 41.9417 37.2105C41.7696 37.0174 41.5588 36.8623 41.3227 36.7552C41.0166 36.6194 40.7024 36.5023 40.3819 36.4044C39.988 36.2784 39.6016 36.1305 39.2244 35.9614C38.9284 35.8196 38.6714 35.6084 38.4755 35.346C38.2586 35.0183 38.1523 34.6303 38.1722 34.2384C38.1639 33.8717 38.2628 33.5104 38.4569 33.1985C38.6543 32.8916 38.9386 32.6497 39.274 32.5031C39.664 32.3335 40.0862 32.2495 40.5119 32.257C41.1547 32.2221 41.789 32.4163 42.3007 32.8047C42.7295 33.1454 43.0054 33.6409 43.0682 34.183H42.0098C41.9499 33.8738 41.7862 33.5939 41.5456 33.3892C41.2609 33.1464 40.8925 33.0229 40.5181 33.0446C40.1747 33.0252 39.8366 33.1351 39.5711 33.3523C39.3677 33.5587 39.2439 33.8296 39.2213 34.1176C39.1987 34.4056 39.2787 34.6923 39.4473 34.9276C39.6056 35.1108 39.802 35.2577 40.0229 35.3583C40.2519 35.4568 40.5738 35.5737 40.9761 35.7029C41.3771 35.8284 41.7698 35.9784 42.1521 36.1521C42.4579 36.3011 42.7201 36.5257 42.9135 36.8044C43.1389 37.1449 43.2495 37.548 43.2291 37.9551C43.2323 38.3063 43.1426 38.6522 42.9692 38.9581Z" fill="#525764"/>
<path d="M51.3623 32.337V33.1308H49.2145V39.8996H48.2366V33.1308H46.0888V32.337H51.3623Z" fill="#525764"/>
<path d="M58.9508 38.1521H55.6084L54.9894 39.8997H53.9063L56.7225 32.4786H57.8367L60.6406 39.8997H59.5698L58.9508 38.1521ZM58.6723 37.389L57.2796 33.5739L55.856 37.389H58.6723Z" fill="#525764"/>
<path d="M69.1946 32.337L66.7187 37.0382V39.8996H65.7284V37.0382L63.2526 32.337H64.3976L66.2545 35.9983L68.1114 32.337H69.1946Z" fill="#525764"/>
<path d="M81.6234 38.1521H78.281L77.662 39.8997H76.585L79.3765 32.4786H80.4845L83.2946 39.8997H82.2609L81.6234 38.1521ZM81.3448 37.389L79.9522 33.5739L78.5595 37.389H81.3448Z" fill="#525764"/>
<path d="M87.423 39.1366H90.1464V39.8996H86.4698V32.337H87.423V39.1366Z" fill="#525764"/>
<path d="M102.662 32.337L100.731 39.8996H99.5299L97.7721 33.7461L96.0142 39.8996H94.8506L92.907 32.337H93.9964L95.451 38.7612L97.2521 32.337H98.3415L100.143 38.7427L101.61 32.337H102.662Z" fill="#525764"/>
<path d="M110.43 38.1521H107.081L106.462 39.8997H105.373L108.189 32.4786H109.297L112.101 39.8997H111.043L110.43 38.1521ZM110.145 37.389L108.759 33.5739L107.366 37.389H110.145Z" fill="#525764"/>
<path d="M120.674 32.337L118.198 37.0382V39.8996H117.201V37.0382L114.725 32.337H115.871L117.727 35.9983L119.584 32.337H120.674Z" fill="#525764"/>
<path d="M128.38 38.9582C128.196 39.2783 127.923 39.5389 127.594 39.7089C127.19 39.9148 126.741 40.0144 126.288 39.9981C125.825 40.0061 125.367 39.9137 124.945 39.7274C124.569 39.5563 124.245 39.2913 124.004 38.9582C123.771 38.6391 123.631 38.2621 123.601 37.869H124.647C124.671 38.0889 124.747 38.3 124.87 38.4843C125.004 38.6954 125.189 38.869 125.409 38.9889C125.669 39.1266 125.962 39.1944 126.257 39.1858C126.437 39.1985 126.617 39.1745 126.788 39.1152C126.958 39.0559 127.114 38.9627 127.247 38.8413C127.362 38.726 127.453 38.5884 127.512 38.437C127.572 38.2857 127.6 38.1238 127.594 37.9613C127.606 37.6894 127.518 37.4223 127.346 37.2106C127.177 37.0147 126.965 36.8591 126.727 36.7552C126.411 36.6172 126.086 36.498 125.755 36.3983C125.362 36.2723 124.975 36.1244 124.598 35.9553C124.301 35.8151 124.043 35.6037 123.849 35.3399C123.632 35.0121 123.526 34.6242 123.546 34.2323C123.537 33.8656 123.636 33.5043 123.83 33.1924C124.028 32.8855 124.312 32.6436 124.647 32.497C125.037 32.3268 125.46 32.2428 125.885 32.2509C126.525 32.2157 127.157 32.4076 127.668 32.7924C128.097 33.1331 128.373 33.6286 128.435 34.1708H127.377C127.312 33.8635 127.149 33.5852 126.913 33.3769C126.628 33.1341 126.26 33.0106 125.885 33.0324C125.542 33.0129 125.204 33.1228 124.938 33.34C124.735 33.5464 124.611 33.8173 124.589 34.1053C124.566 34.3933 124.646 34.6801 124.815 34.9153C124.973 35.0985 125.169 35.2455 125.39 35.3461C125.619 35.4445 125.935 35.5614 126.337 35.6907C126.74 35.8162 127.135 35.9662 127.519 36.1399C127.824 36.2904 128.086 36.5147 128.281 36.7921C128.506 37.1327 128.617 37.5357 128.596 37.9428C128.615 38.2943 128.54 38.6445 128.38 38.9582Z" fill="#525764"/>
<path d="M141.236 32.337V33.1308H137.918V35.7522H140.728V36.4967H137.918V39.8873H136.94V32.337H141.236Z" fill="#525764"/>
<path d="M148.595 39.8996L146.608 36.8229H145.544V39.8996H144.559V32.337H147.066C147.768 32.2824 148.464 32.5033 149.004 32.9524C149.216 33.1658 149.381 33.4213 149.487 33.7023C149.594 33.9832 149.64 34.2833 149.623 34.583C149.649 35.1274 149.462 35.6608 149.103 36.0722C148.703 36.476 148.172 36.7248 147.605 36.7737L149.678 39.8935L148.595 39.8996ZM145.544 36.1029H146.98C148.094 36.1029 148.651 35.6168 148.651 34.6446C148.651 33.6723 148.094 33.1862 146.98 33.1862H145.544V36.1029Z" fill="#525764"/>
<path d="M153.992 33.1308V35.7152H156.883V36.4967H153.992V39.1366H157.205V39.9304H153.033V32.337H157.23V33.1308H153.992Z" fill="#525764"/>
<path d="M165.177 38.9582C164.993 39.2783 164.72 39.5389 164.391 39.7089C163.988 39.9156 163.538 40.0152 163.085 39.9981C162.623 40.0055 162.165 39.9132 161.742 39.7274C161.37 39.5599 161.046 39.3016 160.801 38.9766C160.571 38.6561 160.432 38.2799 160.399 37.8875H161.445C161.468 38.1074 161.545 38.3184 161.668 38.5028C161.801 38.7138 161.986 38.8875 162.206 39.0074C162.467 39.1442 162.759 39.212 163.054 39.2043C163.234 39.217 163.415 39.1929 163.585 39.1337C163.755 39.0744 163.912 38.9812 164.044 38.8597C164.16 38.7444 164.25 38.6069 164.309 38.4555C164.369 38.3041 164.397 38.1422 164.391 37.9798C164.402 37.709 164.317 37.443 164.15 37.2291C163.978 37.0359 163.767 36.8808 163.531 36.7737C163.214 36.6357 162.89 36.5165 162.559 36.4168C162.165 36.2908 161.779 36.1429 161.401 35.9737C161.105 35.8319 160.848 35.6208 160.652 35.3584C160.435 35.0306 160.329 34.6426 160.349 34.2508C160.341 33.884 160.44 33.5228 160.634 33.2108C160.831 32.904 161.116 32.6621 161.451 32.5155C161.841 32.3459 162.263 32.2619 162.689 32.2694C163.329 32.2342 163.961 32.4261 164.471 32.8109C164.9 33.1516 165.176 33.6471 165.239 34.1892H164.181C164.121 33.88 163.957 33.6002 163.716 33.3954C163.432 33.1526 163.063 33.0291 162.689 33.0508C162.345 33.0314 162.007 33.1413 161.742 33.3585C161.538 33.5649 161.415 33.8358 161.392 34.1238C161.369 34.4118 161.449 34.6985 161.618 34.9338C161.776 35.117 161.973 35.264 162.194 35.3646C162.423 35.463 162.738 35.5799 163.147 35.7091C163.548 35.8346 163.941 35.9846 164.323 36.1583C164.629 36.3073 164.891 36.5319 165.084 36.8106C165.31 37.1511 165.42 37.5542 165.4 37.9613C165.413 38.3072 165.337 38.6506 165.177 38.9582Z" fill="#525764"/>
<path d="M174.746 32.337V39.8996H173.756V36.4044H169.894V39.8996H168.909V32.337H169.894V35.6106H173.756V32.337H174.746Z" fill="#525764"/>
</svg>
