<svg width="17" height="16" viewBox="0 0 17 16" fill="none" xmlns="http://www.w3.org/2000/svg">
<path d="M12.7017 4.68929C13.2319 4.68929 13.6617 4.25948 13.6617 3.72929C13.6617 3.19909 13.2319 2.76929 12.7017 2.76929C12.1715 2.76929 11.7417 3.19909 11.7417 3.72929C11.7417 4.25948 12.1715 4.68929 12.7017 4.68929Z" fill="#F9F2ED"/>
<path d="M8.431 3.89197C7.61851 3.89197 6.82427 4.1329 6.14872 4.58429C5.47316 5.03568 4.94663 5.67726 4.6357 6.4279C4.32478 7.17854 4.24343 8.00452 4.40193 8.8014C4.56044 9.59827 4.95169 10.3302 5.52621 10.9048C6.10072 11.4793 6.8327 11.8705 7.62957 12.029C8.42644 12.1875 9.25242 12.1062 10.0031 11.7953C10.7537 11.4843 11.3953 10.9578 11.8467 10.2822C12.2981 9.60669 12.539 8.81245 12.539 7.99997C12.539 6.91046 12.1062 5.86557 11.3358 5.09517C10.5654 4.32477 9.52051 3.89197 8.431 3.89197ZM8.431 10.6666C7.90358 10.6666 7.38801 10.5102 6.94948 10.2172C6.51095 9.9242 6.16915 9.50773 5.96732 9.02046C5.76549 8.53319 5.71268 7.99701 5.81557 7.47973C5.91847 6.96244 6.17244 6.48729 6.54538 6.11435C6.91832 5.74141 7.39348 5.48743 7.91076 5.38454C8.42804 5.28165 8.96422 5.33445 9.45149 5.53629C9.93876 5.73812 10.3552 6.07992 10.6483 6.51845C10.9413 6.95698 11.0977 7.47255 11.0977 7.99997C11.0977 8.70721 10.8167 9.38549 10.3166 9.88558C9.81652 10.3857 9.13824 10.6666 8.431 10.6666Z" fill="#F9F2ED"/>
<path d="M8.43103 1.44133C10.567 1.44133 10.8204 1.44933 11.6637 1.488C12.1709 1.49402 12.6733 1.58715 13.149 1.76333C13.4941 1.89646 13.8076 2.10036 14.0691 2.36192C14.3307 2.62348 14.5346 2.93689 14.6677 3.282C14.8439 3.75769 14.937 4.26011 14.943 4.76733C14.9817 5.61067 14.9897 5.864 14.9897 8.00067C14.9897 10.1373 14.9817 10.3893 14.943 11.2327C14.937 11.7399 14.8439 12.2423 14.6677 12.718C14.5346 13.0631 14.3307 13.3765 14.0691 13.6381C13.8076 13.8996 13.4941 14.1035 13.149 14.2367C12.6733 14.4128 12.1709 14.506 11.6637 14.512C10.8204 14.5507 10.567 14.5587 8.43103 14.5587C6.29503 14.5587 6.0417 14.5507 5.19836 14.512C4.69114 14.506 4.18872 14.4128 3.71303 14.2367C3.36792 14.1035 3.05451 13.8996 2.79295 13.6381C2.53139 13.3765 2.32749 13.0631 2.19436 12.718C2.01819 12.2423 1.92505 11.7399 1.91903 11.2327C1.88036 10.3893 1.87236 10.136 1.87236 8C1.87236 5.864 1.88036 5.61067 1.91903 4.76733C1.92505 4.26011 2.01819 3.75769 2.19436 3.282C2.32749 2.93689 2.53139 2.62348 2.79295 2.36192C3.05451 2.10036 3.36792 1.89646 3.71303 1.76333C4.18872 1.58715 4.69114 1.49402 5.19836 1.488C6.0417 1.44933 6.29503 1.44133 8.43103 1.44133ZM8.43103 0C6.25836 0 5.9857 0.00933335 5.13236 0.048C4.46888 0.0613974 3.81247 0.18718 3.19103 0.42C2.65951 0.625532 2.1768 0.939852 1.77384 1.34281C1.37088 1.74577 1.05656 2.22848 0.85103 2.76C0.618136 3.38165 0.492353 4.03829 0.47903 4.702C0.440364 5.55533 0.43103 5.82667 0.43103 8C0.43103 10.1733 0.440364 10.4453 0.47903 11.2987C0.492428 11.9622 0.61821 12.6186 0.85103 13.24C1.05656 13.7715 1.37088 14.2542 1.77384 14.6572C2.1768 15.0601 2.65951 15.3745 3.19103 15.58C3.81268 15.8129 4.46932 15.9387 5.13303 15.952C5.98636 15.9907 6.25836 16 8.43103 16C10.6037 16 10.8764 15.9907 11.7297 15.952C12.3934 15.9387 13.05 15.8129 13.6717 15.58C14.2032 15.3745 14.6859 15.0601 15.0889 14.6572C15.4918 14.2542 15.8062 13.7715 16.0117 13.24C16.2444 12.6183 16.3699 11.9617 16.383 11.298C16.4217 10.4447 16.431 10.1733 16.431 8C16.431 5.82667 16.4217 5.55467 16.383 4.70133C16.3696 4.03785 16.2439 3.38144 16.011 2.76C15.8055 2.22848 15.4912 1.74577 15.0882 1.34281C14.6853 0.939852 14.2025 0.625532 13.671 0.42C13.0493 0.187333 12.3927 0.0617754 11.729 0.0486666C10.8757 0.00866664 10.6044 0 8.43103 0Z" fill="#F9F2ED"/>
</svg>
