<svg width="16" height="14" viewBox="0 0 16 14" fill="none" xmlns="http://www.w3.org/2000/svg">
<path d="M16 2.03805C15.5615 2.6913 15.0067 3.27295 14.3624 3.73828C14.3714 3.8725 14.3714 4.01568 14.3714 4.15886C14.3714 8.4989 11.0694 13.5011 5.03803 13.5011C3.18568 13.5011 1.45861 12.9553 0 12.0246C0.259508 12.0515 0.519016 12.0694 0.787472 12.0694C2.32662 12.0694 3.74049 11.5414 4.85906 10.6644C4.1748 10.6503 3.51205 10.4228 2.96338 10.0137C2.4147 9.60458 2.0075 9.03433 1.79866 8.38257C1.99553 8.41836 2.20134 8.44521 2.41611 8.44521C2.71141 8.44521 3.00671 8.40047 3.27517 8.32888C2.53298 8.17652 1.86602 7.77289 1.38677 7.18606C0.907521 6.59922 0.64529 5.86507 0.644295 5.1074V5.07161C1.09172 5.31322 1.59284 5.46534 2.12975 5.48324C1.68036 5.1818 1.31218 4.77425 1.05777 4.29665C0.803363 3.81905 0.670571 3.28612 0.671141 2.74499C0.671141 2.14543 0.832215 1.58168 1.11857 1.09845C2.73825 3.08503 5.15436 4.39152 7.88367 4.52575C7.82998 4.28414 7.79418 4.03358 7.79418 3.77407C7.79655 2.90462 8.1436 2.07159 8.75924 1.45763C9.37487 0.843674 10.2088 0.498898 11.0783 0.498901C12.0268 0.498901 12.877 0.892637 13.4765 1.53693C14.2192 1.38481 14.9262 1.11635 15.5615 0.740512C15.311 1.50114 14.7919 2.14543 14.1119 2.54812C14.7638 2.47685 15.4008 2.30478 16 2.03805Z" fill="#F9F2ED"/>
</svg>
