<svg width="90" height="81" viewBox="0 0 90 81" fill="none" xmlns="http://www.w3.org/2000/svg">
<path d="M29.6666 33.5076C28.8815 33.5057 28.1135 33.7376 27.46 34.174C26.8064 34.6104 26.2966 35.2316 25.9953 35.9589C25.694 36.6862 25.6147 37.4868 25.7674 38.2594C25.9201 39.0319 26.298 39.7416 26.8531 40.2986C27.4083 40.8555 28.1157 41.2346 28.8858 41.3878C29.6559 41.5409 30.454 41.4614 31.179 41.1591C31.904 40.8568 32.5232 40.3454 32.9582 39.6898C33.3932 39.0341 33.6244 38.2637 33.6225 37.4761C33.6187 36.4247 33.2008 35.4175 32.4597 34.6741C31.7186 33.9307 30.7146 33.5114 29.6666 33.5076Z" fill="#D9BEA7"/>
<path d="M84.6674 11.8701C74.3649 -2.44333 57.4676 -3.0465 46.1964 10.3861C45.8383 10.8618 45.5069 11.3573 45.2039 11.8701C43.3858 9.95526 41.9638 8.27499 40.3891 6.77184C33.5653 0.256599 25.768 -1.05985 17.0975 2.52568C4.81465 7.60958 -1.69421 19.9364 0.381563 34.178C2.0899 45.8824 7.84479 55.4279 17.0832 62.4219C25.6487 68.9132 34.9252 74.4614 43.9346 80.3496C44.2871 80.5082 44.6709 80.5841 45.0571 80.5717C45.4432 80.5592 45.8214 80.4587 46.163 80.2778C53.9269 75.3949 61.8435 70.7036 69.3067 65.3994C78.6405 58.7454 85.7554 50.2052 88.6519 38.7353C91.0379 29.2425 90.575 20.08 84.6674 11.8701ZM16.4294 44.1064C15.3475 44.1105 14.2811 43.8481 13.3238 43.3422C12.3666 42.8362 11.5478 42.1023 10.9394 41.2047C10.331 40.3072 9.95148 39.2736 9.83428 38.1945C9.71709 37.1155 9.86574 36.0241 10.2672 35.0162C10.6687 34.0083 11.3107 33.1147 12.1368 32.4138C12.963 31.7129 13.948 31.2262 15.0055 30.9965C16.0629 30.7667 17.1604 30.8009 18.2016 31.096C19.2428 31.3912 20.1958 31.9382 20.977 32.6892L19.0874 34.561C18.3624 33.8742 17.4027 33.4921 16.4056 33.4934C15.7618 33.4945 15.128 33.6529 14.5591 33.955C13.9901 34.2571 13.5031 34.6938 13.1403 35.2272C12.7775 35.7607 12.5497 36.3748 12.4767 37.0164C12.4038 37.658 12.4878 38.3078 12.7216 38.9095C12.9553 39.5113 13.3318 40.0467 13.8183 40.4696C14.3048 40.8925 14.8868 41.1901 15.5137 41.3365C16.1407 41.483 16.7938 41.4739 17.4165 41.3101C18.0392 41.1463 18.6127 40.8327 19.0874 40.3964L20.9532 42.2682C19.7351 43.4448 18.1108 44.1035 16.4199 44.1064H16.4294ZM29.6762 44.1064C28.3682 44.1102 27.0886 43.7246 25.9992 42.9984C24.9098 42.2722 24.0598 41.238 23.5566 40.0268C23.0535 38.8157 22.9198 37.482 23.1727 36.1946C23.4255 34.9072 24.0535 33.7241 24.977 32.7949C25.9006 31.8657 27.0781 31.2324 28.3607 30.975C29.6432 30.7176 30.9731 30.8478 32.1818 31.349C33.3906 31.8503 34.4239 32.7001 35.151 33.7908C35.878 34.8815 36.2661 36.1642 36.2661 37.4763C36.2649 39.2327 35.5695 40.9169 34.3324 42.1597C33.0953 43.4026 31.4174 44.1026 29.6666 44.1064H29.6762ZM41.8731 38.8071V44.1064H39.239V30.851H47.2033V33.5078H41.8731V36.1503H47.2033V38.8071H41.8731ZM52.8007 44.1064H50.1714V30.851H58.1357V33.5078H52.8007V36.1455H58.1357V38.8071H52.8007V44.1064ZM61.099 44.1064V30.851H69.0681V33.5078H63.7331V36.1455H69.0681V38.8071H63.7331V41.4448H69.0681V44.1016L61.099 44.1064ZM72.0314 44.1064V30.8462H79.9957V33.5078H74.6655V36.1455H79.9957V38.8023H74.6655V41.4448H80.0005V44.1016L72.0314 44.1064Z" fill="#D9BEA7"/>
</svg>
