<svg width="90" height="76" viewBox="0 0 90 76" fill="none" xmlns="http://www.w3.org/2000/svg">
<path d="M30.9333 44.3866C31.2064 44.3739 31.4722 44.2937 31.7073 44.1531C31.9424 44.0126 32.1397 43.8159 32.2816 43.5804C32.403 43.3767 32.5018 43.1593 32.6052 42.9419C32.726 42.6767 32.9029 42.4412 33.1233 42.2519C33.3438 42.0626 33.6026 41.9241 33.8816 41.8459C34.0884 41.7871 34.2906 41.7056 34.5378 41.6195C34.413 41.4323 34.2412 41.2817 34.0399 41.183C33.8386 41.0844 33.615 41.0412 33.3917 41.058C32.7843 41.1086 32.2011 41.3211 31.702 41.6737C31.2029 42.0262 30.8057 42.5061 30.5512 43.0642C30.4664 43.2571 30.4346 43.4694 30.4591 43.6789C30.4836 43.8884 30.5636 44.0875 30.6905 44.2552C30.7197 44.2929 30.7564 44.324 30.7982 44.3466C30.84 44.3692 30.886 44.3828 30.9333 44.3866Z" fill="#D9BEA7"/>
<path d="M18.2588 33.4675C18.384 33.7133 18.5793 33.9158 18.8196 34.0489C19.0598 34.1821 19.3341 34.2398 19.6072 34.2148C19.6886 34.2161 19.7682 34.1895 19.8327 34.1393C19.8972 34.0891 19.9429 34.0183 19.9622 33.9385C20.0882 33.5903 20.1167 33.2139 20.0446 32.8504C19.9725 32.487 19.8025 32.1505 19.5532 31.8779C19.3121 31.6054 19.1401 31.2781 19.0516 30.9241C18.9632 30.57 18.961 30.1996 19.0453 29.8446C19.0993 29.6272 19.1217 29.3917 19.1622 29.1335C18.8779 29.1641 18.6092 29.2796 18.3906 29.4652C18.1719 29.6508 18.0134 29.8981 17.9352 30.1751C17.7363 30.7124 17.6621 31.2885 17.7182 31.8591C17.7743 32.4298 17.9592 32.98 18.2588 33.4675Z" fill="#D9BEA7"/>
<path d="M20.4161 33.4407C20.3757 33.6218 20.3442 33.803 20.2948 34.0475C20.5045 33.9702 20.6959 33.8497 20.8568 33.6938C21.0177 33.5379 21.1447 33.3499 21.2296 33.1418C21.4929 32.5856 21.5986 31.9669 21.5352 31.354C21.4717 30.7411 21.2416 30.1578 20.8701 29.6683C20.7507 29.492 20.5957 29.3432 20.4153 29.2316C20.2348 29.12 20.0329 29.0481 19.8229 29.0207C19.6206 28.989 19.5173 29.0207 19.4633 29.2698C19.2431 30.2525 19.3015 31.1537 20.0566 31.9281C20.2428 32.1264 20.374 32.3705 20.4371 32.636C20.5002 32.9014 20.493 33.1789 20.4161 33.4407Z" fill="#D9BEA7"/>
<path d="M56.0125 41.5198C56.2088 41.6516 56.4395 41.7219 56.6754 41.7219C56.9114 41.7219 57.142 41.6516 57.3384 41.5198C57.3871 41.4886 57.4281 41.4468 57.4585 41.3974C57.4888 41.348 57.5077 41.2923 57.5137 41.2345C57.5247 40.9878 57.4844 40.7415 57.3954 40.5114C57.3064 40.2813 57.1706 40.0726 56.9968 39.8985C56.78 39.7048 56.5435 39.5348 56.2912 39.3913C55.9521 39.2144 55.6607 38.9571 55.4423 38.6415C55.2238 38.3259 55.0848 37.9616 55.0372 37.5798C55.0013 37.3986 54.9533 37.22 54.8934 37.0454C54.6714 37.1534 54.485 37.3236 54.3567 37.5357C54.2283 37.7478 54.1634 37.9927 54.1698 38.241C54.1553 38.9041 54.319 39.5588 54.6433 40.1359C54.9677 40.713 55.4407 41.1912 56.0125 41.5198Z" fill="#D9BEA7"/>
<path d="M56.7226 39.1783C57.003 39.2878 57.2486 39.4721 57.4331 39.7114C57.6175 39.9507 57.7339 40.2361 57.7698 40.5369C57.7968 40.709 57.8148 40.8857 57.8418 41.1393C58.0194 40.9799 58.1616 40.7846 58.2592 40.5661C58.3568 40.3476 58.4075 40.1108 58.4081 39.8712C58.4262 39.2937 58.2983 38.721 58.0365 38.2069C57.7747 37.6927 57.3876 37.2541 56.9114 36.9321C56.7088 36.766 56.4684 36.6534 56.2118 36.6044C55.9552 36.5554 55.6906 36.5715 55.4417 36.6513C55.3518 36.683 55.235 36.8234 55.244 36.8959C55.3968 37.8876 55.7204 38.7526 56.7226 39.1783Z" fill="#D9BEA7"/>
<path d="M45.383 28.459C45.2993 28.6887 45.242 28.9272 45.2122 29.17C45.1835 29.4899 45.0781 29.798 44.9051 30.0678C44.7321 30.3376 44.4966 30.561 44.219 30.7188C44.0901 30.8025 43.9669 30.8947 43.8504 30.9951C44.0034 31.1356 44.1935 31.2283 44.3977 31.262C44.6019 31.2958 44.8115 31.2692 45.001 31.1853C45.5153 30.9891 45.9672 30.6559 46.3084 30.2212C46.6495 29.7865 46.8672 29.2667 46.9381 28.7172C46.9777 28.522 46.9591 28.3195 46.8848 28.1349C46.8104 27.9504 46.6835 27.7922 46.5201 27.6801C46.4804 27.6531 46.4353 27.635 46.388 27.6272C46.3406 27.6194 46.2922 27.622 46.246 27.6348C46.0532 27.7043 45.8769 27.8135 45.7284 27.9554C45.5798 28.0973 45.4622 28.2688 45.383 28.459Z" fill="#D9BEA7"/>
<path d="M43.6167 30.7641C44.3178 30.3384 44.8841 29.813 44.8931 28.8982C44.8892 28.6427 44.955 28.3909 45.0834 28.1705C45.2118 27.9501 45.3979 27.7694 45.6212 27.6483C45.7426 27.5713 45.8729 27.5079 46.0707 27.4038C45.8928 27.3154 45.6984 27.2657 45.5002 27.2579C45.302 27.2501 45.1043 27.2844 44.9201 27.3585C44.4681 27.5249 44.0657 27.8048 43.7511 28.1718C43.4365 28.5387 43.2201 28.9805 43.1223 29.4553C43.0581 29.6658 43.047 29.8891 43.0902 30.105C43.1334 30.3209 43.2294 30.5226 43.3695 30.6916C43.4017 30.7231 43.441 30.7462 43.4841 30.7589C43.5272 30.7715 43.5728 30.7733 43.6167 30.7641Z" fill="#D9BEA7"/>
<path d="M32.7086 43.5486C32.6388 43.7839 32.5105 43.9972 32.3359 44.1684C32.1613 44.3396 31.9461 44.463 31.7108 44.5268C31.522 44.5857 31.3333 44.6355 31.0951 44.7035C31.2358 44.8354 31.4014 44.9374 31.5821 45.0036C31.7628 45.0697 31.9548 45.0985 32.1468 45.0884C32.7357 45.0656 33.306 44.8748 33.7914 44.538C34.2768 44.2013 34.6572 43.7325 34.8884 43.1863C34.9665 43.0112 35.0069 42.8213 35.0069 42.6293C35.0069 42.4373 34.9665 42.2474 34.8884 42.0723C34.8611 42.0299 34.8239 41.9949 34.78 41.9704C34.7361 41.9459 34.6869 41.9327 34.6367 41.9319C33.7423 42.1583 32.9962 42.5659 32.7086 43.5486Z" fill="#D9BEA7"/>
<path d="M19.5352 69.8154L54.2596 69.4305C60.1744 64.9018 64.6599 58.1087 66.7858 50.1427L5.97986 47.9463C7.87204 57.0807 12.825 64.8655 19.5352 69.8154Z" fill="#D9BEA7"/>
<path d="M87.0379 23.011C83.8918 13.9807 78.3051 9.20746 70.8578 9.20746H63.9992V2.96237C63.9992 2.58141 63.9244 2.20421 63.7792 1.85248C63.634 1.50074 63.4212 1.18142 63.153 0.912885C62.8848 0.644349 62.5666 0.431902 62.2166 0.28777C61.8666 0.143638 61.4918 0.0706664 61.1137 0.0730548H2.97754V6.74384C2.97872 8.10796 3.51612 9.41607 4.47215 10.3819C5.42818 11.3478 6.72498 11.8927 8.07878 11.8975H8.70801C8.17551 12.9488 8.03826 14.1587 8.32159 15.3039C8.60491 16.4492 9.28969 17.4526 10.2496 18.129C6.49823 22.0579 3.65572 26.7742 1.92576 31.94C0.195802 37.1058 -0.37877 42.5932 0.243213 48.0091C0.865196 53.4249 2.66833 58.6351 5.52343 63.2663C8.37852 67.8974 12.2149 71.835 16.7576 74.7967L17.1756 75.073L56.7766 74.6835L57.19 74.4028C61.5443 71.4459 65.2177 67.5814 67.9619 63.0706C70.706 58.5598 72.4568 53.5079 73.096 48.2564C73.7351 43.005 73.2477 37.6764 71.6667 32.6312C70.0857 27.5859 67.4479 22.9415 63.9318 19.0121H70.8533H70.9387L71.096 18.9804C71.2893 18.9804 72.5432 18.9804 74.0444 20.339C76.0984 22.1867 79.5726 27.585 79.8198 42.9826C79.8502 44.3234 80.3991 45.5992 81.3495 46.5382C82.2998 47.4771 83.5765 48.0051 84.9075 48.0094C85.5799 48.0101 86.2456 47.8764 86.8664 47.6162C87.4871 47.356 88.0505 46.9745 88.524 46.4936C88.9975 46.0126 89.3718 45.4419 89.6251 44.8144C89.8784 44.1869 90.0057 43.5151 89.9998 42.8377C89.9638 38.5218 89.5324 30.189 87.0379 23.011ZM6.73044 6.74384V3.86811H60.2148V8.10698H8.07878C7.90134 8.10699 7.72564 8.07169 7.56175 8.00313C7.39787 7.93457 7.24903 7.8341 7.12377 7.70746C6.9985 7.58082 6.89928 7.43051 6.83178 7.26515C6.76429 7.09979 6.72985 6.92264 6.73044 6.74384ZM59.7294 19.4605C63.3032 22.9036 66.073 27.1039 67.8382 31.7578C69.6035 36.4117 70.3202 41.4027 69.9366 46.3699C69.5529 51.3371 68.0784 56.1562 65.6198 60.4789C63.1612 64.8015 59.7798 68.5195 55.7203 71.364L18.133 71.7308C13.9318 68.9037 10.4228 65.1521 7.87076 60.759C5.3187 56.3659 3.79022 51.4462 3.40067 46.371C3.01112 41.2958 3.77068 36.1977 5.62203 31.4615C7.47338 26.7253 10.3682 22.4746 14.0879 19.0302H20.2948L59.7294 19.4605ZM86.0536 44.0423C85.9034 44.1957 85.7242 44.3173 85.5266 44.3997C85.329 44.4822 85.1169 44.5239 84.903 44.5223C84.4808 44.5225 84.0753 44.3563 83.773 44.0593C83.4707 43.7623 83.2956 43.358 83.285 42.9328C83.0783 29.9535 80.6692 21.4123 76.1298 17.5448C74.7631 16.2946 72.9994 15.5753 71.1544 15.516C70.9926 15.516 70.8578 15.516 70.7634 15.516H13.0497C12.6778 15.516 12.3211 15.3671 12.0581 15.1021C11.7951 14.8371 11.6474 14.4777 11.6474 14.103C11.6474 13.7283 11.7951 13.3689 12.0581 13.1039C12.3211 12.8389 12.6778 12.69 13.0497 12.69H70.8488C76.777 12.69 81.1232 16.5485 83.7659 24.1522C86.0941 30.8547 86.4941 38.7482 86.5256 42.8603C86.5307 43.0793 86.4915 43.297 86.4104 43.5003C86.3292 43.7035 86.2079 43.8879 86.0536 44.0423Z" fill="#D9BEA7"/>
</svg>
