<svg width="101" height="101" viewBox="0 0 101 101" fill="none" xmlns="http://www.w3.org/2000/svg">
<path d="M66.2481 52.7489L68.402 52.195C70.0172 51.732 71.5243 50.9486 72.8348 49.8908C74.4776 48.6488 75.8347 47.064 76.8135 45.2449C77.6675 43.5661 77.83 42.051 77.2717 40.9976C76.5177 39.5832 74.5596 39.1509 72.1099 39.9903L71.6391 40.154L71.5266 40.6408C70.7381 44.2507 69.3522 47.7012 67.4271 50.8477L66.2481 52.7489ZM73.1556 41.5474C74.4304 41.199 75.4428 41.3501 75.7094 41.8453C75.9052 42.2147 75.9011 43.1044 75.2345 44.4306C74.3752 46.0118 73.1889 47.3887 71.7558 48.4681C71.2785 48.8427 70.776 49.1835 70.2518 49.4879C71.5314 46.9675 72.5063 44.3016 73.1556 41.5474Z" fill="#D9BEA7"/>
<path d="M33.7563 55.0362C38.2224 60.4629 44.0591 63.4301 50.1917 63.4301C56.0577 63.4301 61.6778 60.6811 66.0648 55.6784C66.3949 55.6992 66.7261 55.6992 67.0563 55.6784C69.3685 55.5105 71.9307 54.4193 74.2804 52.5978C79.4173 48.6107 81.7795 42.777 79.7964 39.0334C78.7465 37.0524 76.6384 36.0703 74.0304 36.2886C74.0846 35.7639 74.1263 35.2351 74.1596 34.7147C74.1945 34.2582 74.1364 33.7993 73.9888 33.3663C73.8412 32.9332 73.6073 32.5352 73.3014 32.1966C73.0577 31.9319 72.7625 31.7208 72.4342 31.5764C72.1059 31.4319 71.7515 31.3573 71.3933 31.3572H28.9943C28.6368 31.3579 28.2832 31.4328 27.9556 31.5772C27.6281 31.7216 27.3336 31.9325 27.0904 32.1966C26.7837 32.5348 26.549 32.9327 26.4007 33.3658C26.2524 33.7989 26.1936 34.2579 26.228 34.7147C26.6905 42.4874 29.3651 49.7019 33.7563 55.0362ZM28.3861 33.4472C28.4619 33.359 28.5552 33.2877 28.6599 33.2379C28.7646 33.188 28.8785 33.1607 28.9943 33.1577H71.3933C71.5094 33.1612 71.6235 33.1892 71.7282 33.2398C71.833 33.2904 71.9261 33.3625 72.0015 33.4514C72.1389 33.608 72.2434 33.791 72.3085 33.9894C72.3737 34.1877 72.3982 34.3974 72.3806 34.6056C72.3265 35.4744 72.2432 36.3599 72.1307 37.2371L71.9682 38.4961L73.1972 38.2359C75.5677 37.7323 77.4008 38.3325 78.2257 39.8895C79.7631 42.7728 77.5008 47.8385 73.193 51.1793C71.11 52.7867 68.8936 53.752 66.9438 53.8989C66.5641 53.9346 66.182 53.9346 65.8023 53.8989L65.3315 53.8485L65.0274 54.2094C60.9404 59.0275 55.6785 61.68 50.2084 61.68C38.6765 61.68 28.9319 49.8027 28.0195 34.6392C27.9967 34.4258 28.0175 34.21 28.0805 34.005C28.1436 33.8001 28.2475 33.6102 28.3861 33.4472Z" fill="#D9BEA7"/>
<path d="M32.3815 96.4013C32.7417 96.4042 33.0874 96.5453 33.348 96.7959L34.0271 96.1159C33.6913 95.7884 33.2675 95.5674 32.8081 95.4802C32.3488 95.3931 31.8742 95.4438 31.4432 95.6259C31.0121 95.808 30.6437 96.1136 30.3834 96.5047C30.1232 96.8958 29.9827 97.3553 29.9793 97.8262C29.9759 98.297 30.1098 98.7585 30.3644 99.1534C30.619 99.5483 30.983 99.8592 31.4114 100.048C31.8398 100.236 32.3136 100.293 32.7741 100.213C33.2347 100.133 33.6616 99.9178 34.0021 99.5952L33.3313 98.9111C33.0645 99.1518 32.7188 99.2848 32.3606 99.2846C32.1662 99.2952 31.9717 99.2658 31.7889 99.1981C31.6062 99.1304 31.439 99.0259 31.2977 98.891C31.1563 98.7561 31.0438 98.5936 30.9668 98.4134C30.8899 98.2332 30.8502 98.0391 30.8502 97.843C30.8502 97.6468 30.8899 97.4527 30.9668 97.2726C31.0438 97.0924 31.1563 96.9299 31.2977 96.795C31.439 96.6601 31.6062 96.5556 31.7889 96.4879C31.9717 96.4202 32.1662 96.3908 32.3606 96.4013H32.3815Z" fill="#D9BEA7"/>
<path d="M36.5476 95.4695C36.0755 95.4662 35.613 95.604 35.2186 95.8655C34.8242 96.127 34.5157 96.5004 34.332 96.9386C34.1483 97.3767 34.0976 97.8599 34.1865 98.327C34.2754 98.7941 34.4998 99.2242 34.8313 99.5629C35.1628 99.9015 35.5866 100.134 36.049 100.23C36.5114 100.326 36.9917 100.281 37.4291 100.102C37.8666 99.9235 38.2415 99.6179 38.5066 99.2243C38.7716 98.8307 38.9149 98.3668 38.9182 97.8912C38.9215 97.2537 38.6739 96.6409 38.2296 96.187C37.7852 95.7331 37.1804 95.4751 36.5476 95.4695ZM36.5185 99.3223C36.235 99.3206 35.9584 99.2344 35.7237 99.0743C35.4889 98.9143 35.3065 98.6878 35.1996 98.4233C35.0927 98.1589 35.066 97.8684 35.1229 97.5887C35.1798 97.309 35.3178 97.0525 35.5193 96.8518C35.7209 96.6511 35.9771 96.5151 36.2554 96.461C36.5337 96.4069 36.8217 96.4372 37.083 96.548C37.3442 96.6588 37.567 96.8451 37.7231 97.0835C37.8792 97.3218 37.9616 97.6014 37.96 97.887C37.9556 98.2692 37.8018 98.6342 37.5319 98.9029C37.2621 99.1717 36.8979 99.3223 36.5185 99.3223Z" fill="#D9BEA7"/>
<path d="M39.3431 100.3L40.293 100.309L40.3055 98.3864L42.2344 98.3989L42.2428 97.4336L40.3138 97.4211L40.3222 96.4642L42.2511 96.4768L42.2552 95.5115L39.3764 95.4905L39.3431 100.3Z" fill="#D9BEA7"/>
<path d="M42.6635 100.325L43.6134 100.334L43.63 98.4115L45.5548 98.4241L45.5631 97.463L43.6342 97.4462L43.6425 96.4893L45.5715 96.5019L45.5798 95.5366L42.6968 95.5156L42.6635 100.325Z" fill="#D9BEA7"/>
<path d="M45.9839 100.351L48.8628 100.376L48.8711 99.4108L46.9422 99.394L46.9505 98.4371L48.8753 98.4539L48.8836 97.4886L46.9547 97.4718L46.963 96.5149L48.8919 96.5275L48.9003 95.5664L46.0173 95.5413L45.9839 100.351Z" fill="#D9BEA7"/>
<path d="M49.3044 100.38L52.1832 100.401L52.1915 99.4357L50.2626 99.4189L50.2709 98.462L52.1957 98.4788L52.204 97.5135L50.2751 97.4967L50.2834 96.5399L52.2124 96.5524L52.2207 95.5913L49.3419 95.5662L49.3044 100.38Z" fill="#D9BEA7"/>
<path d="M56.4368 96.5859L57.7783 96.5985L57.7491 100.443L58.7032 100.451L58.7323 96.6027L60.0738 96.6153L60.0822 95.65L56.441 95.6206L56.4368 96.5859Z" fill="#D9BEA7"/>
<path d="M62.7402 95.6712C62.268 95.6679 61.8055 95.8057 61.4112 96.0672C61.0168 96.3287 60.7082 96.7021 60.5245 97.1402C60.3408 97.5784 60.2902 98.0615 60.379 98.5287C60.4679 98.9958 60.6923 99.4259 61.0238 99.7645C61.3553 100.103 61.7791 100.335 62.2415 100.431C62.7039 100.527 63.1842 100.483 63.6217 100.304C64.0591 100.125 64.4341 99.8196 64.6991 99.426C64.9642 99.0324 65.1074 98.5684 65.1107 98.0928C65.1135 97.7769 65.0543 97.4635 64.9365 97.1706C64.8188 96.8777 64.6448 96.6112 64.4245 96.3862C64.2043 96.1612 63.9422 95.9822 63.6531 95.8595C63.3641 95.7369 63.0538 95.6728 62.7402 95.6712ZM62.711 99.524C62.4276 99.5223 62.151 99.436 61.9162 99.276C61.6815 99.116 61.4991 98.8894 61.3921 98.625C61.2852 98.3605 61.2585 98.0701 61.3154 97.7904C61.3723 97.5106 61.5103 97.2542 61.7119 97.0535C61.9135 96.8527 62.1696 96.7167 62.4479 96.6626C62.7263 96.6086 63.0142 96.6388 63.2755 96.7496C63.5367 96.8604 63.7595 97.0468 63.9156 97.2851C64.0717 97.5235 64.1541 97.8031 64.1525 98.0886C64.1503 98.2793 64.1109 98.4677 64.0364 98.6431C63.962 98.8184 63.8539 98.9773 63.7185 99.1106C63.5831 99.2438 63.423 99.3489 63.2473 99.4199C63.0715 99.4908 62.8836 99.5262 62.6943 99.524H62.711Z" fill="#D9BEA7"/>
<path d="M71.2433 98.0466H70.2851H69.8227V99.0119H70.9684C70.7861 99.2539 70.5327 99.4318 70.2442 99.5203C69.9557 99.6088 69.6469 99.6033 69.3617 99.5048C69.0765 99.4062 68.8294 99.2195 68.6556 98.9713C68.4818 98.723 68.3901 98.4259 68.3937 98.1222C68.3937 97.7404 68.5442 97.3742 68.8122 97.1043C69.0802 96.8343 69.4437 96.6826 69.8227 96.6826C70.1847 96.6827 70.5326 96.8241 70.7934 97.0771L71.4725 96.3972C71.0341 95.9639 70.4452 95.72 69.831 95.7173C69.3589 95.714 68.8964 95.8518 68.502 96.1133C68.1076 96.3748 67.799 96.7482 67.6153 97.1864C67.4316 97.6245 67.381 98.1077 67.4699 98.5748C67.5587 99.0419 67.7831 99.472 68.1146 99.8107C68.4462 100.149 68.8699 100.381 69.3323 100.477C69.7947 100.573 70.275 100.529 70.7125 100.35C71.1499 100.171 71.5249 99.8657 71.79 99.4721C72.055 99.0785 72.1982 98.6146 72.2015 98.139C72.2015 98.1096 72.2015 98.076 72.2015 98.0466H71.2433Z" fill="#D9BEA7"/>
<path d="M75.0511 95.7635C74.579 95.7594 74.1163 95.8964 73.7214 96.1572C73.3266 96.418 73.0174 96.7908 72.8329 97.2287C72.6485 97.6665 72.597 98.1496 72.6851 98.6169C72.7732 99.0841 72.9968 99.5146 73.3277 99.8538C73.6586 100.193 74.082 100.426 74.5442 100.523C75.0065 100.62 75.4869 100.576 75.9246 100.398C76.3624 100.22 76.7379 99.9149 77.0036 99.5218C77.2693 99.1286 77.4134 98.6649 77.4175 98.1893C77.422 97.5519 77.1754 96.9386 76.7318 96.4839C76.2883 96.0292 75.6839 95.7702 75.0511 95.7635ZM75.022 99.6163C74.7383 99.6155 74.4613 99.5299 74.226 99.3703C73.9907 99.2108 73.8077 98.9846 73.7001 98.7202C73.5925 98.4558 73.5652 98.1652 73.6217 97.8852C73.6781 97.6052 73.8158 97.3484 74.0172 97.1472C74.2186 96.9461 74.4748 96.8097 74.7532 96.7552C75.0316 96.7008 75.3199 96.7309 75.5813 96.8415C75.8428 96.9522 76.0658 97.1386 76.2221 97.377C76.3784 97.6154 76.4609 97.8952 76.4593 98.181C76.4571 98.5635 76.3047 98.9296 76.0354 99.1994C75.7661 99.4691 75.4017 99.6205 75.022 99.6205V99.6163Z" fill="#D9BEA7"/>
<path d="M43.3842 58.0329C43.4435 58.0344 43.5023 58.0233 43.5569 58.0001C43.6115 57.977 43.6606 57.9423 43.7009 57.8986C43.7433 57.859 43.777 57.8109 43.8 57.7574C43.8229 57.7039 43.8346 57.6462 43.8342 57.588C43.8342 57.4689 43.7872 57.3547 43.7036 57.2704C43.62 57.1862 43.5066 57.1389 43.3884 57.1389C43.2702 57.1389 43.1568 57.1862 43.0732 57.2704C42.9896 57.3547 42.9426 57.4689 42.9426 57.588C42.9417 57.6459 42.9527 57.7034 42.9749 57.7569C42.9971 57.8104 43.0301 57.8586 43.0718 57.8986C43.1548 57.9824 43.2668 58.0305 43.3842 58.0329Z" fill="#D9BEA7"/>
<path d="M46.8089 56.3209C46.8681 56.3225 46.927 56.3113 46.9816 56.2881C47.0362 56.265 47.0852 56.2303 47.1255 56.1866C47.1679 56.147 47.2016 56.0989 47.2246 56.0454C47.2475 55.9919 47.2592 55.9343 47.2588 55.876C47.2597 55.7553 47.2133 55.6392 47.1296 55.5528C47.0439 55.4717 46.9307 55.4265 46.813 55.4265C46.6954 55.4265 46.5821 55.4717 46.4964 55.5528C46.4127 55.6392 46.3663 55.7553 46.3672 55.876C46.3663 55.9339 46.3773 55.9915 46.3995 56.0449C46.4218 56.0984 46.4547 56.1466 46.4964 56.1866C46.5794 56.2704 46.6914 56.3185 46.8089 56.3209Z" fill="#D9BEA7"/>
<path d="M58.8532 52.3799C58.91 52.3802 58.9663 52.3689 59.0186 52.3465C59.0709 52.3241 59.1181 52.2912 59.1573 52.2498C59.203 52.2104 59.2398 52.1614 59.2649 52.1064C59.2901 52.0513 59.3031 51.9914 59.3031 51.9308C59.2996 51.8102 59.2521 51.6952 59.1698 51.6076C59.0774 51.5271 58.9587 51.4837 58.8365 51.4859C58.7259 51.4898 58.6206 51.5346 58.5407 51.6118C58.4985 51.6529 58.4649 51.7022 58.442 51.7566C58.4191 51.811 58.4073 51.8696 58.4073 51.9287C58.4073 51.9878 58.4191 52.0464 58.442 52.1008C58.4649 52.1552 58.4985 52.2045 58.5407 52.2456C58.6249 52.3276 58.7362 52.3754 58.8532 52.3799Z" fill="#D9BEA7"/>
<path d="M54.4579 54.4155C54.5159 54.4156 54.5734 54.4041 54.627 54.3818C54.6806 54.3594 54.7293 54.3267 54.7704 54.2854C54.856 54.1996 54.9052 54.0838 54.9078 53.9622C54.9083 53.903 54.8963 53.8443 54.8726 53.79C54.8489 53.7358 54.814 53.6872 54.7704 53.6475C54.6863 53.5647 54.5734 53.5183 54.4558 53.5183C54.3383 53.5183 54.2254 53.5647 54.1413 53.6475C54.0984 53.6876 54.0643 53.7363 54.0413 53.7905C54.0184 53.8448 54.007 53.9033 54.008 53.9622C54.0093 54.0767 54.0541 54.1863 54.1329 54.2686C54.173 54.3158 54.2229 54.3534 54.2791 54.3788C54.3352 54.4042 54.3963 54.4167 54.4579 54.4155Z" fill="#D9BEA7"/>
<path d="M57.42 57.1983C57.5396 57.1943 57.6537 57.1466 57.7408 57.064C57.8238 56.9789 57.8702 56.8643 57.8699 56.745C57.8709 56.6871 57.8599 56.6295 57.8376 56.5761C57.8154 56.5226 57.7824 56.4744 57.7408 56.4344C57.7015 56.3917 57.6538 56.3577 57.6007 56.3346C57.5476 56.3115 57.4903 56.2997 57.4325 56.3001C57.3736 56.299 57.3151 56.3097 57.2603 56.3315C57.2055 56.3533 57.1556 56.3858 57.1134 56.4272C57.0711 56.4685 57.0375 56.5179 57.0143 56.5725C56.9911 56.627 56.9789 56.6857 56.9784 56.745C56.9775 56.8029 56.9885 56.8605 57.0107 56.9139C57.0329 56.9674 57.0659 57.0156 57.1075 57.0556C57.1894 57.1421 57.3014 57.1933 57.42 57.1983Z" fill="#D9BEA7"/>
<path d="M58.8615 53.5173C58.8049 53.5147 58.7483 53.5238 58.6953 53.544C58.6423 53.5642 58.5939 53.5951 58.5532 53.6348C58.5064 53.6751 58.469 53.7254 58.4438 53.782C58.4186 53.8386 58.4061 53.9001 58.4074 53.9621C58.4059 54.0208 58.4166 54.0791 58.4388 54.1333C58.4611 54.1875 58.4943 54.2364 58.5365 54.2769C58.6188 54.3623 58.7309 54.4119 58.849 54.4154C58.9677 54.4111 59.0812 54.3651 59.1698 54.2853C59.2534 54.199 59.2999 54.0828 59.2989 53.9621C59.2999 53.9042 59.2888 53.8467 59.2666 53.7932C59.2444 53.7398 59.2114 53.6916 59.1698 53.6516C59.1304 53.6089 59.0827 53.5749 59.0297 53.5517C58.9766 53.5286 58.9193 53.5169 58.8615 53.5173Z" fill="#D9BEA7"/>
<path d="M50.5709 58.3686C50.6299 58.3687 50.6883 58.3568 50.7427 58.3338C50.7971 58.3107 50.8463 58.2769 50.8875 58.2343C50.9292 58.1929 50.9623 58.1436 50.9849 58.0892C51.0075 58.0348 51.0191 57.9764 51.0191 57.9174C51.0191 57.8585 51.0075 57.8001 50.9849 57.7457C50.9623 57.6913 50.9292 57.642 50.8875 57.6006C50.8008 57.5213 50.688 57.4773 50.5709 57.4773C50.4538 57.4773 50.3409 57.5213 50.2542 57.6006C50.1721 57.6828 50.1256 57.7945 50.1251 57.9112C50.1242 57.971 50.1351 58.0304 50.1573 58.0859C50.1795 58.1414 50.2124 58.1918 50.2542 58.2343C50.3382 58.3191 50.4519 58.3673 50.5709 58.3686Z" fill="#D9BEA7"/>
<path d="M47.9212 60.2451C47.979 60.2455 48.0363 60.2338 48.0894 60.2107C48.1425 60.1875 48.1902 60.1535 48.2295 60.1108C48.3125 60.0258 48.3589 59.9112 48.3586 59.7919C48.3578 59.6731 48.315 59.5585 48.2378 59.4687C48.1509 59.3882 48.0372 59.3435 47.9191 59.3435C47.801 59.3435 47.6873 59.3882 47.6004 59.4687C47.5599 59.5117 47.5283 59.5625 47.5076 59.618C47.4868 59.6735 47.4773 59.7326 47.4796 59.7919C47.4747 59.8519 47.4827 59.9123 47.503 59.969C47.5233 60.0257 47.5556 60.0773 47.5975 60.1203C47.6394 60.1633 47.69 60.1967 47.7458 60.2182C47.8017 60.2398 47.8615 60.2489 47.9212 60.2451Z" fill="#D9BEA7"/>
<path d="M50.6584 59.8086C50.6173 59.8514 50.5851 59.902 50.5637 59.9575C50.5422 60.013 50.5319 60.0722 50.5334 60.1317C50.5329 60.2523 50.5793 60.3683 50.6626 60.4549C50.7462 60.5372 50.8581 60.5838 50.975 60.585C51.0335 60.586 51.0916 60.5745 51.1455 60.5514C51.1993 60.5283 51.2477 60.4939 51.2875 60.4507C51.3705 60.3656 51.4169 60.251 51.4166 60.1317C51.4162 60.0121 51.3716 59.897 51.2916 59.8086C51.2064 59.7265 51.093 59.6807 50.975 59.6807C50.8571 59.6807 50.7437 59.7265 50.6584 59.8086Z" fill="#D9BEA7"/>
<path d="M54.1287 59.9048C54.2457 59.904 54.3578 59.8573 54.4412 59.7747C54.5234 59.6874 54.5696 59.5719 54.5704 59.4515C54.568 59.3323 54.5237 59.2178 54.4454 59.1284C54.3585 59.0479 54.2447 59.0032 54.1267 59.0032C54.0086 59.0032 53.8948 59.0479 53.8079 59.1284C53.7281 59.2165 53.6848 59.3322 53.6871 59.4515C53.6873 59.5732 53.7335 59.6903 53.8163 59.7789C53.9008 59.8593 54.0125 59.9043 54.1287 59.9048Z" fill="#D9BEA7"/>
<path d="M54.687 56.3921C54.6822 56.4518 54.69 56.5118 54.7101 56.5682C54.7302 56.6245 54.7621 56.6759 54.8035 56.7188C54.845 56.7618 54.895 56.7953 54.9504 56.8171C55.0057 56.8389 55.0651 56.8486 55.1244 56.8454C55.183 56.8464 55.241 56.8349 55.2949 56.8118C55.3487 56.7886 55.3971 56.7543 55.4369 56.7111C55.4782 56.6691 55.5109 56.6193 55.533 56.5646C55.5552 56.5098 55.5664 56.4512 55.566 56.3921C55.5656 56.2725 55.521 56.1573 55.4411 56.0689C55.3553 55.9878 55.2421 55.9426 55.1244 55.9426C55.0068 55.9426 54.8936 55.9878 54.8078 56.0689C54.7673 56.112 54.7358 56.1627 54.715 56.2182C54.6943 56.2737 54.6847 56.3329 54.687 56.3921Z" fill="#D9BEA7"/>
<path d="M63.4734 47.8513C63.5299 47.8522 63.586 47.8415 63.6383 47.8199C63.6906 47.7982 63.738 47.7661 63.7775 47.7254C63.8212 47.6857 63.8561 47.6371 63.8798 47.5829C63.9035 47.5286 63.9155 47.4699 63.915 47.4106C63.9156 47.3505 63.9041 47.2908 63.8812 47.2353C63.8583 47.1798 63.8245 47.1295 63.7817 47.0875C63.7389 47.045 63.6881 47.0117 63.6323 46.9893C63.5765 46.967 63.5168 46.9561 63.4567 46.9574C63.4006 46.9576 63.3451 46.9692 63.2936 46.9916C63.242 47.0139 63.1955 47.0466 63.1568 47.0875C63.114 47.1295 63.0802 47.1798 63.0573 47.2353C63.0343 47.2908 63.0228 47.3505 63.0235 47.4106C63.024 47.4694 63.0361 47.5275 63.0591 47.5816C63.082 47.6356 63.1154 47.6845 63.1572 47.7255C63.1991 47.7665 63.2485 47.7987 63.3028 47.8203C63.3571 47.8419 63.4151 47.8524 63.4734 47.8513Z" fill="#D9BEA7"/>
<path d="M63.1568 51.7125C63.2156 51.7129 63.2739 51.7008 63.3278 51.6769C63.3816 51.6531 63.4298 51.618 63.4693 51.574C63.5502 51.4892 63.5963 51.3768 63.5984 51.2592C63.5993 51.2012 63.5883 51.1437 63.5661 51.0903C63.5439 51.0368 63.5109 50.9886 63.4693 50.9486C63.3859 50.8661 63.2737 50.8198 63.1568 50.8198C63.0399 50.8198 62.9277 50.8661 62.8443 50.9486C62.7587 51.0344 62.7095 51.1502 62.7068 51.2718C62.71 51.391 62.7584 51.5044 62.8421 51.5888C62.9258 51.6731 63.0385 51.7219 63.1568 51.725V51.7125Z" fill="#D9BEA7"/>
<path d="M61.5987 55.6491C61.6542 55.65 61.7094 55.6397 61.7609 55.6188C61.8124 55.5979 61.8592 55.5668 61.8986 55.5274C61.9457 55.488 61.9835 55.4385 62.0094 55.3827C62.0353 55.3268 62.0487 55.2659 62.0486 55.2043C62.0485 55.083 62.0005 54.9668 61.9153 54.8811C61.8242 54.7983 61.7046 54.7547 61.582 54.7594C61.4721 54.761 61.3673 54.8062 61.2904 54.8853C61.2074 54.9703 61.1609 55.085 61.1612 55.2043C61.1602 55.3209 61.2034 55.4334 61.2821 55.519C61.3665 55.6027 61.4803 55.6494 61.5987 55.6491Z" fill="#D9BEA7"/>
<path d="M66.0273 40.8932C66.1389 40.8919 66.2459 40.8484 66.3273 40.7715C66.3771 40.7328 66.4176 40.6833 66.4458 40.6266C66.4739 40.5699 66.489 40.5075 66.4897 40.4441C66.49 40.3834 66.4783 40.3232 66.4554 40.2671C66.4326 40.2109 66.3989 40.1598 66.3564 40.1168C66.2644 40.0359 66.1451 39.9938 66.0231 39.9992C65.913 40.0016 65.8076 40.045 65.7273 40.121C65.6451 40.2083 65.599 40.3238 65.5982 40.4441C65.5974 40.5594 65.6406 40.6706 65.719 40.7547C65.8005 40.8387 65.9108 40.8882 66.0273 40.8932Z" fill="#D9BEA7"/>
<path d="M68.5729 43.1257C68.6304 43.1266 68.6875 43.1155 68.7405 43.0931C68.7936 43.0707 68.8415 43.0375 68.8812 42.9956C68.966 42.9096 69.0138 42.7936 69.0145 42.6724C69.008 42.5581 68.9581 42.4507 68.8751 42.3725C68.7921 42.2944 68.6823 42.2514 68.5687 42.2527C68.4551 42.2514 68.3453 42.2944 68.2623 42.3725C68.1793 42.4507 68.1293 42.5581 68.1229 42.6724C68.1205 42.7285 68.1301 42.7845 68.1509 42.8366C68.1718 42.8888 68.2034 42.9358 68.2437 42.9746C68.2838 43.0231 68.3342 43.0618 68.3912 43.088C68.4481 43.1141 68.5103 43.127 68.5729 43.1257Z" fill="#D9BEA7"/>
<path d="M67.6188 46.7981C67.6773 46.7969 67.7351 46.784 67.7887 46.7602C67.8423 46.7364 67.8907 46.7023 67.9312 46.6596C67.9722 46.6183 68.0047 46.5692 68.0269 46.5152C68.049 46.4612 68.0604 46.4033 68.0604 46.3449C68.0613 46.2879 68.0506 46.2314 68.0291 46.1787C68.0077 46.1261 67.9758 46.0783 67.9354 46.0385C67.8953 45.9967 67.8475 45.9634 67.7945 45.9403C67.7416 45.9173 67.6847 45.905 67.6271 45.9042C67.5688 45.901 67.5105 45.9102 67.4559 45.9311C67.4014 45.9521 67.3518 45.9844 67.3105 46.0259C67.2232 46.1091 67.1723 46.2238 67.1688 46.3449C67.1678 46.4038 67.1792 46.4623 67.2022 46.5166C67.2252 46.5708 67.2592 46.6195 67.3021 46.6596C67.3857 46.7456 67.4993 46.7953 67.6188 46.7981Z" fill="#D9BEA7"/>
<path d="M52.8456 9.57959C52.4677 10.0546 52.0495 10.4955 51.5957 10.8974C51.1166 11.3423 50.5959 11.7956 50.0501 12.2656C48.8255 13.2767 47.7655 14.4748 46.9088 15.8162C45.9931 17.337 45.6199 19.1269 45.8506 20.8903C46.0701 22.5073 46.7032 24.0389 47.6879 25.3348C48.5905 26.5514 49.7466 27.5542 51.075 28.2727C49.5085 25.8049 48.4878 23.1357 48.6294 20.7518C48.6852 19.6341 49.0679 18.5579 49.7293 17.6587C50.5183 16.6643 51.4139 15.7607 52.3998 14.9642C54.4495 13.2183 57.3325 10.4106 56.9826 6.48646C56.872 5.53156 56.4868 4.63003 55.8744 3.89276C55.3179 3.25177 54.6374 2.73194 53.8746 2.36508C52.4831 1.68099 51.1833 1.34943 49.9209 0.572998C50.6167 1.91601 51.9457 2.83934 52.8747 3.80043C53.8038 4.76153 54.3079 5.69744 54.1954 6.64595C54.0313 7.73316 53.5631 8.75076 52.8456 9.57959Z" fill="#D9BEA7"/>
<path d="M43.2884 26.2831C42.1204 24.8063 41.3485 23.0518 41.047 21.1881C40.9394 20.3379 41.0155 19.4743 41.27 18.6564C41.5246 17.8386 41.9516 17.0858 42.5219 16.4498C43.705 15.1193 45.3215 13.8225 46.4589 12.0766C47.1066 11.1934 47.4701 10.1314 47.5004 9.03379C47.4585 8.50484 47.291 7.99381 47.0118 7.54384C46.7326 7.09387 46.3501 6.71818 45.8964 6.44849C46.4672 7.28787 46.8088 8.17762 46.6297 9.00441C46.4035 9.85209 45.9645 10.6268 45.3548 11.254C44.1342 12.6431 42.6218 13.7469 41.1887 15.2914C40.4629 16.1302 39.937 17.125 39.6514 18.1999C39.392 19.2739 39.402 20.396 39.6805 21.4651C40.2311 23.4749 41.5213 25.1978 43.2884 26.2831Z" fill="#D9BEA7"/>
<path d="M54.5704 17.7342C54.0271 18.5545 53.6937 19.4974 53.5997 20.479C53.517 21.433 53.6465 22.3936 53.9788 23.2909C54.5991 24.9836 55.7809 26.4084 57.3242 27.3242C56.3595 26.0042 55.6707 24.5007 55.2995 22.9048C55.1371 22.1909 55.1191 21.4514 55.2465 20.7304C55.3739 20.0093 55.6441 19.3215 56.041 18.7079C56.8368 17.5117 58.1824 16.4541 59.3406 15.1321C59.9614 14.4612 60.448 13.6761 60.7738 12.8196C61.0845 11.9588 61.0845 11.0153 60.7738 10.1545C60.6655 11.9382 59.6156 13.1176 58.3782 14.1374C57.1409 15.1573 55.6827 16.1016 54.5704 17.7342Z" fill="#D9BEA7"/>
<path d="M7.822 78.4846L11.5382 77.3682L10.7508 74.699L0.664551 77.7166L1.45195 80.39L5.16816 79.2778L8.3136 89.9296L10.9674 89.1364L7.822 78.4846Z" fill="#D9BEA7"/>
<path d="M20.1038 86.7108L18.9581 81.2757L23.8742 80.2265L25.0199 85.6615L27.7071 85.0866L24.8407 71.4885L22.1536 72.0635L23.2993 77.4985L18.3832 78.5519L17.2375 73.1169L14.5504 73.6919L17.4167 87.2899L20.1038 86.7108Z" fill="#D9BEA7"/>
<path d="M36.8267 69.6462L28.5902 70.813L30.5108 84.5789L38.7515 83.4121L38.364 80.6506L32.848 81.4354L32.4648 78.6906L37.9807 77.91L37.5975 75.1484L32.0815 75.929L31.6982 73.1884L37.2142 72.4078L36.8267 69.6462Z" fill="#D9BEA7"/>
<path d="M55.4036 71.2071C56.4443 71.1935 57.4511 71.5791 58.2199 72.2857L60.1405 70.2796C59.1512 69.3513 57.9129 68.7363 56.5795 68.511C55.2461 68.2857 53.8764 68.4601 52.6405 69.0124C51.4047 69.5648 50.3571 70.4707 49.6281 71.6178C48.8991 72.7648 48.5207 74.1023 48.5399 75.4642C48.5591 76.8261 48.9751 78.1522 49.7362 79.2779C50.4974 80.4036 51.57 81.2792 52.821 81.7959C54.0719 82.3126 55.446 82.4477 56.7725 82.1843C58.099 81.9209 59.3194 81.2707 60.2822 80.3144L58.3074 78.3797C57.8198 78.8475 57.2262 79.1883 56.5781 79.3725C55.93 79.5567 55.2471 79.5788 54.5887 79.4368C53.9302 79.2949 53.3161 78.9931 52.7997 78.5578C52.2833 78.1225 51.8801 77.5667 51.6253 76.9389C51.3704 76.311 51.2716 75.6299 51.3373 74.9548C51.403 74.2797 51.6314 73.6309 52.0024 73.0649C52.3735 72.4989 52.8762 72.0326 53.4667 71.7067C54.0572 71.3807 54.7178 71.2049 55.3911 71.1945L55.4036 71.2071Z" fill="#D9BEA7"/>
<path d="M68.7602 68.8442L62.511 82.2156L65.4273 82.4926L67.1854 78.7532L71.4058 79.1519L72.4431 83.1557L75.3594 83.4327L71.6849 69.1212L68.7602 68.8442ZM68.4311 76.0713L69.8226 73.0538L70.6558 76.2812L68.4311 76.0713Z" fill="#D9BEA7"/>
<path d="M80.3672 84.394L81.5004 78.9547L86.9538 80.1089L87.5246 77.3809L82.0711 76.2267L82.6335 73.5155L88.087 74.6697L88.6536 71.9417L80.513 70.2209L77.68 83.8274L80.3672 84.394Z" fill="#D9BEA7"/>
<path d="M99.8106 78.2248L100.669 75.5765L92.7656 72.9702L88.4703 86.1779L96.3777 88.7842L97.2401 86.136L91.9449 84.39L92.799 81.7586L98.0941 83.5045L98.9565 80.8562L93.6614 79.1103L94.5154 76.4788L99.8106 78.2248Z" fill="#D9BEA7"/>
<path d="M36.0768 87.8688C19.5497 90.2527 8.79269 94.9197 8.34274 95.1169L9.25513 97.2154C9.36345 97.1692 20.2329 92.4603 36.4726 90.1268C51.4249 87.9821 74.1263 87.4701 97.3692 97.2238L98.2441 95.1253C74.4929 85.1282 51.3249 85.657 36.0768 87.8688Z" fill="#D9BEA7"/>
</svg>
