<svg width="91" height="96" viewBox="0 0 91 96" fill="none" xmlns="http://www.w3.org/2000/svg">
<path d="M38.9059 62.0336C36.5862 62.8612 34.7062 63.6326 32.7712 64.2013C27.2192 65.8453 23.3052 69.398 20.7876 74.668C19.8146 76.7118 18.8801 78.7837 17.7422 80.7318C14.9222 85.5514 10.5245 87.8598 5.21983 88.4284C4.47222 88.5129 3.36731 87.8654 2.87257 87.1842C0.294442 83.6877 0.124033 79.8028 1.59725 75.7997C5.22532 65.896 17.8081 56.8199 28.1537 56.6566C32.3534 56.6172 35.9925 57.8841 38.9059 62.0336Z" fill="#D9BEA7"/>
<path d="M28.1812 1.09106C27.8129 3.45579 27.6315 5.43203 27.1862 7.35196C25.658 14.1083 27.3456 19.9695 31.5454 25.1944C35.8826 30.5995 37.3613 36.5113 35.0745 43.2845C34.5193 44.9117 33.6508 45.5704 32.0016 45.6774C26.7299 46.0828 23.0304 43.369 20.5292 39.1181C15.2025 30.0364 14.1636 20.2791 17.5608 10.2459C19.2044 5.47144 22.3378 1.99754 28.1812 1.09106Z" fill="#D9BEA7"/>
<path d="M80.3375 34.0114C79.3775 35.2946 78.3421 36.5167 77.2371 37.6711C72.0479 42.5019 70.0195 48.4869 70.5637 55.5754C70.7876 58.1098 70.7249 60.6623 70.3768 63.182C69.6896 67.6524 67.0125 70.9518 63.4834 73.4685C63.0429 73.6985 62.5596 73.8295 62.0657 73.8528C61.5718 73.8761 61.0787 73.7912 60.6194 73.6036C56.5516 71.7963 54.4462 68.2774 54.2318 63.9589C53.6107 51.5329 58.5031 41.6798 68.4308 34.5913C72.1303 31.9338 76.528 31.9056 80.3375 34.0114Z" fill="#D9BEA7"/>
<path d="M38.1089 44.2192C38.5267 42.0853 38.807 40.4863 39.1533 38.8986C40.2528 33.9552 39.5216 29.2877 36.053 25.6617C29.5554 18.8772 29.0552 10.9836 30.9462 2.32415C31.397 0.274718 32.293 -0.108143 34.052 0.13959C35.8669 0.387846 37.6104 1.02446 39.1692 2.00806C40.7281 2.99166 42.0675 4.30023 43.1002 5.84872C49.7517 15.3696 50.6917 25.628 46.1731 36.3255C45.438 38.1428 44.3412 39.7833 42.9528 41.1424C41.5643 42.5015 39.9146 43.5493 38.1089 44.2192Z" fill="#D9BEA7"/>
<path d="M65.6163 75.4616C67.2654 74.009 68.4033 73.0462 69.4642 72.0103C73.5761 68.1141 75.1977 63.3002 74.0928 57.6868C72.2513 48.3574 76.7864 41.7699 82.8881 35.8975C83.3444 35.464 84.9275 35.6385 85.5597 36.1171C89.4626 39.0955 90.7654 43.4815 90.661 48.1547C90.4191 58.8522 85.9445 67.399 77.1712 73.3728C74.0268 75.5517 70.4482 76.4751 65.6163 75.4616Z" fill="#D9BEA7"/>
<path d="M6.74803 91.4353C8.94686 90.7765 10.7444 90.2811 12.509 89.7124C17.154 88.226 20.4688 85.1518 21.854 80.3942C24.6026 71.0817 31.5729 67.1912 39.9394 64.9897C40.5881 64.8152 41.9404 65.6203 42.2757 66.3185C43.9248 69.7924 43.606 73.4014 42.3197 76.9203C38.5981 87.0549 27.1422 95.1513 16.6098 95.0724C13.0642 95.0443 9.72195 94.3461 6.74803 91.4353Z" fill="#D9BEA7"/>
</svg>
