<svg width="108" height="81" viewBox="0 0 108 81" fill="none" xmlns="http://www.w3.org/2000/svg">
<path d="M44.0053 57.0475C44.9435 57.4259 45.739 57.6983 46.4835 58.0566C49.1095 59.333 51.6998 59.1917 54.2697 57.9355C56.9213 56.6389 59.5065 56.5834 62.0713 58.1827C62.3445 58.3184 62.5623 58.5427 62.6885 58.8181C62.8147 59.0936 62.8417 59.4035 62.7648 59.6962C62.413 61.9362 60.9291 63.2278 58.9303 63.8634C56.916 64.5476 54.7702 64.7669 52.6571 64.5045C50.544 64.2422 48.5195 63.5052 46.7384 62.3499C45.8026 61.834 45.0431 61.0544 44.5564 60.1102C44.0698 59.166 43.8779 58.0999 44.0053 57.0475Z" fill="#D9BEA7"/>
<path d="M62.7547 57.0125C61.9133 56.6341 61.2861 56.3667 60.6641 56.069C58.7366 55.1407 56.7429 54.9995 54.9072 56.1043C51.4704 58.1678 48.1662 57.6179 44.7906 56.0135C43.985 55.6301 43.9136 55.2164 44.1889 54.5C44.4711 53.7653 44.906 53.0973 45.4655 52.5394C46.025 51.9815 46.6967 51.546 47.4371 51.2611C52.0262 49.3944 56.3349 49.9695 60.2969 52.8805C60.9746 53.3622 61.5432 53.9784 61.9664 54.6899C62.3896 55.4014 62.6581 56.1925 62.7547 57.0125Z" fill="#D9BEA7"/>
<path d="M25.0979 37.2204C25.0993 36.377 25.4389 35.5685 26.0421 34.9726C26.6454 34.3767 27.463 34.042 28.3155 34.042C29.5084 34.0407 30.667 34.437 31.6044 35.1671L30.0746 36.6806C29.5541 36.3468 28.946 36.1714 28.3257 36.1761C28.1846 36.1754 28.0448 36.2023 27.9143 36.2553C27.7838 36.3082 27.6652 36.3861 27.5652 36.4846C27.4652 36.583 27.3859 36.7001 27.3317 36.8289C27.2776 36.9578 27.2497 37.096 27.2497 37.2355C27.253 37.4783 27.3353 37.7136 27.4843 37.9065C27.8782 38.2455 28.391 38.4177 28.912 38.3858C29.3216 38.3817 29.7278 38.459 30.1066 38.613C30.4854 38.7671 30.8291 38.9949 31.1172 39.2828C31.4054 39.5708 31.6322 39.913 31.7842 40.2893C31.9362 40.6656 32.0103 41.0683 32.0021 41.4734C31.9967 42.3142 31.6553 43.1188 31.0525 43.7114C30.4497 44.3041 29.6344 44.6367 28.7846 44.6367C27.4033 44.6388 26.0755 44.1086 25.0826 43.1585L26.6124 41.645C27.2064 42.1969 27.9901 42.5052 28.805 42.5077C29.0881 42.505 29.3586 42.3915 29.5574 42.192C29.7561 41.9925 29.8669 41.7233 29.8656 41.4431C29.8744 41.2828 29.8399 41.1229 29.7655 40.9801C29.6911 40.8374 29.5795 40.7168 29.4424 40.6309C28.9324 40.3383 28.086 40.419 27.5506 40.2929C26.8551 40.1227 26.2366 39.7284 25.7926 39.1721C25.3485 38.6159 25.1041 37.9292 25.0979 37.2204Z" fill="#D9BEA7"/>
<path d="M37.7232 36.1914V44.6671H35.5714V36.1914H32.5629V34.0522H40.7214V36.1762L37.7232 36.1914Z" fill="#D9BEA7"/>
<path d="M48.054 44.6923L46.973 41.7257H43.679L42.5827 44.6872H40.3085L44.2093 34.0925H46.4886L50.3333 44.6872L48.054 44.6923ZM45.3311 37.2053L44.4642 39.5917H46.203L45.3311 37.2053Z" fill="#D9BEA7"/>
<path d="M55.0907 36.2368V44.7125H52.944V36.2368H49.9304V34.1128H58.0889V36.2418L55.0907 36.2368Z" fill="#D9BEA7"/>
<path d="M59.1037 34.1179H61.2351V44.7126H59.0986L59.1037 34.1179Z" fill="#D9BEA7"/>
<path d="M72.9068 39.4556C72.9048 40.5045 72.5884 41.5293 71.9976 42.4002C71.4069 43.2712 70.5683 43.9492 69.588 44.3486C68.6076 44.7479 67.5296 44.8506 66.4903 44.6436C65.451 44.4366 64.4971 43.9293 63.7492 43.1859C63.0014 42.4424 62.4932 41.4962 62.289 40.4669C62.0848 39.4376 62.1937 38.3715 62.6019 37.4035C63.0102 36.4355 63.6995 35.609 64.5826 35.0286C65.4656 34.4483 66.5029 34.1401 67.563 34.1431C68.9835 34.1471 70.3442 34.7089 71.3462 35.705C72.3482 36.7012 72.9096 38.0502 72.9068 39.4556ZM64.3251 39.4556C64.3221 40.0852 64.5078 40.7015 64.8589 41.2267C65.2099 41.7519 65.7104 42.1623 66.2972 42.406C66.884 42.6497 67.5306 42.7158 68.1553 42.5959C68.78 42.476 69.3548 42.1755 69.8069 41.7324C70.259 41.2893 70.5681 40.7235 70.6953 40.1066C70.8224 39.4896 70.7617 38.8493 70.521 38.2664C70.2803 37.6836 69.8703 37.1845 69.3429 36.8322C68.8154 36.4799 68.1943 36.2903 67.5579 36.2873C66.7146 36.2898 65.9059 36.6192 65.3053 37.205C64.7048 37.7907 64.3602 38.586 64.3455 39.4203L64.3251 39.4556Z" fill="#D9BEA7"/>
<path d="M80.7238 34.1785H82.8552V44.7732H80.3669L76.0888 37.71V44.7732H73.9268L73.9574 34.1785H76.461L80.7238 41.2416V34.1785Z" fill="#D9BEA7"/>
<path d="M33.5828 20.6018C34.6106 20.5998 35.6147 20.2965 36.4685 19.7303C37.3222 19.1641 37.9873 18.3603 38.3797 17.4204C38.7721 16.4805 38.8742 15.4467 38.6732 14.4494C38.4722 13.4521 37.977 12.5361 37.2503 11.817C36.5235 11.098 35.5977 10.6081 34.5898 10.4092C33.5818 10.2103 32.5369 10.3114 31.5869 10.6996C30.637 11.0878 29.8246 11.7458 29.2523 12.5906C28.68 13.4353 28.3735 14.4288 28.3715 15.4457C28.3709 16.123 28.5052 16.7938 28.7668 17.4196C29.0285 18.0455 29.4123 18.6142 29.8964 19.0931C30.3804 19.572 30.9552 19.9518 31.5877 20.2107C32.2203 20.4695 32.8982 20.6025 33.5828 20.6018Z" fill="#D9BEA7"/>
<path d="M107.407 14.7951V3.98348C107.406 3.0785 107.042 2.21104 106.394 1.5716C105.747 0.932153 104.87 0.572997 103.955 0.572998L3.94698 0.572998C3.03278 0.572998 2.15603 0.932316 1.5096 1.5719C0.863162 2.21149 0.5 3.07896 0.5 3.98348L0.5 27.0244H0.836539C1.14407 27.8891 1.64022 28.6763 2.28978 29.33C14.7774 41.5694 27.3262 53.6877 39.8139 65.8918C44.6325 70.5989 49.3084 75.4421 54.3921 80.573L102.099 32.7455C103.404 31.4338 104.705 30.117 106.025 28.8205C106.561 28.3226 106.971 27.7075 107.224 27.0244H107.407V26.303C107.475 25.8877 107.506 25.4673 107.499 25.0467C107.438 21.6362 107.417 18.2308 107.407 14.7951ZM99.5496 6.87432V10.31H92.5587V13.7255H99.5496V17.1613H92.5587V20.5768H99.5496V24.0125H89.1067V6.85918L99.5496 6.87432ZM85.2212 6.87432V10.31H78.2303V13.7255H85.2212V17.1613H78.2303V20.5768H85.2212V24.0125H74.7783V6.85918L85.2212 6.87432ZM70.8928 6.87432V10.31H63.9019V13.7255H70.8979V17.1613H63.9019V24.0125H60.4549V6.85918L70.8928 6.87432ZM56.5694 6.87432V10.31H49.5735V13.7255H56.5898V17.1613H49.5735V24.0125H46.1265V6.85918L56.5694 6.87432ZM33.5777 6.87432C35.2922 6.87432 36.9681 7.37733 38.3936 8.31974C39.8191 9.26216 40.9302 10.6016 41.5863 12.1688C42.2424 13.736 42.4141 15.4605 42.0796 17.1242C41.7451 18.7879 40.9195 20.3161 39.7072 21.5156C38.4949 22.715 36.9503 23.5319 35.2688 23.8628C33.5873 24.1938 31.8444 24.0239 30.2604 23.3748C28.6765 22.7256 27.3227 21.6263 26.3702 20.2159C25.4177 18.8055 24.9093 17.1473 24.9093 15.451C24.9093 13.1763 25.8226 10.9948 27.4482 9.38636C29.0739 7.77793 31.2787 6.87432 33.5777 6.87432ZM16.2154 6.87432C18.4371 6.8739 20.573 7.72355 22.1762 9.24551L19.7337 11.6722C18.7829 10.7836 17.5233 10.2905 16.2154 10.2949C15.3763 10.3029 14.5517 10.5122 13.8124 10.9049C13.0731 11.2976 12.4411 11.862 11.9708 12.5496C11.5004 13.2371 11.2057 14.0273 11.112 14.8524C11.0182 15.6774 11.1283 16.5126 11.4326 17.2863C11.7369 18.06 12.2265 18.7491 12.8592 19.2944C13.492 19.8398 14.249 20.225 15.0653 20.4171C15.8817 20.6092 16.733 20.6025 17.5461 20.3974C18.3592 20.1924 19.1099 19.7951 19.7337 19.2398L22.1762 21.6615C21.1503 22.6299 19.9 23.3345 18.5348 23.7136C17.1697 24.0927 15.7314 24.1346 14.3461 23.8358C12.9607 23.537 11.6706 22.9065 10.5888 21.9997C9.50704 21.0928 8.6666 19.9372 8.14117 18.6342C7.61574 17.3313 7.42138 15.9206 7.57512 14.526C7.72886 13.1314 8.22601 11.7954 9.02298 10.6352C9.81995 9.47487 10.8924 8.52573 12.1464 7.87093C13.4003 7.21612 14.7975 6.87565 16.2154 6.87936V6.87432ZM96.3626 33.2753L54.3972 76.209L33.7919 55.5241L8.42396 30.0515L99.9575 29.5974L96.3626 33.2753Z" fill="#D9BEA7"/>
</svg>
