<svg width="116" height="91" viewBox="0 0 116 91" fill="none" xmlns="http://www.w3.org/2000/svg">
<path d="M105.895 33.6472H89.6967C86.7416 22.9527 79.9201 13.7205 70.5411 7.72209C61.1622 1.72374 49.8866 -0.618106 38.8782 1.14598C27.8698 2.91007 17.9041 8.6558 10.8936 17.2805C3.88308 25.9053 0.321671 36.8014 0.8928 47.878C1.46393 58.9545 6.12736 69.431 13.9882 77.2971C21.8489 85.1632 32.3533 89.8647 43.4854 90.4992C54.6175 91.1338 65.5931 87.6568 74.3059 80.7355C83.0186 73.8142 88.8548 63.9362 90.6944 52.9971H105.895C107.19 53.0248 108.477 52.7951 109.682 52.3213C110.886 51.8476 111.984 51.1394 112.909 50.2382C113.835 49.3371 114.571 48.2612 115.073 47.0735C115.575 45.8859 115.833 44.6105 115.833 43.3222C115.833 42.0338 115.575 40.7584 115.073 39.5708C114.571 38.3832 113.835 37.3072 112.909 36.4061C111.984 35.5049 110.886 34.7967 109.682 34.323C108.477 33.8492 107.19 33.6195 105.895 33.6472ZM105.895 50.0602H88.1391L87.9676 51.3311C86.542 61.6932 81.2837 71.1544 73.22 77.8665C65.1563 84.5785 54.8665 88.059 44.3609 87.6282C33.8552 87.1974 23.8883 82.8862 16.4075 75.5367C8.92658 68.1872 4.4691 58.3276 3.90583 47.8839C3.34255 37.4402 6.71396 27.1628 13.3614 19.0594C20.0088 10.956 29.4548 5.60888 39.8538 4.06254C50.2529 2.51621 60.858 4.88179 69.5973 10.6972C78.3366 16.5125 84.5824 25.3599 87.1143 35.5108L87.4213 36.7457L88.699 36.6155C88.9247 36.5931 89.1504 36.5841 89.3897 36.5841H105.895C107.691 36.5841 109.413 37.2937 110.683 38.5569C111.953 39.8202 112.667 41.5335 112.667 43.3199C112.667 45.1064 111.953 46.8197 110.683 48.0829C109.413 49.3461 107.691 50.0558 105.895 50.0558V50.0602Z" fill="#D9BEA7"/>
<path d="M46.7135 9.94629C39.6237 9.9454 32.6929 12.0358 26.7975 15.9531C20.9021 19.8704 16.307 25.4386 13.5932 31.9536C10.8795 38.4687 10.169 45.6378 11.5516 52.5545C12.9342 59.4712 16.3478 65.8248 21.3607 70.8117C26.3736 75.7986 32.7607 79.1948 39.7142 80.571C46.6677 81.9471 53.8753 81.2413 60.4255 78.5428C66.9757 75.8442 72.5743 71.2742 76.5133 65.4107C80.4522 59.5472 82.5546 52.6534 82.5546 45.6013C82.5546 36.1458 78.7787 27.0775 72.0573 20.391C65.3359 13.7045 56.2196 9.94748 46.7135 9.94629ZM43.5262 16.9695C44.6188 17.2749 45.4088 18.631 46.3253 19.5202C47.2282 18.6221 48.0318 17.2749 49.1198 16.9695C50.3252 16.6372 51.8601 19.6369 51.0746 21.276C49.8963 23.7458 48.3658 26.0674 46.7 28.8156C46.5916 29.0581 46.4878 29.3051 46.3794 29.5611L46.3117 29.4488L46.2485 29.5611C46.1402 29.3051 46.0363 29.0581 45.928 28.8156C44.2937 26.0674 42.7542 23.7458 41.5759 21.2805C40.7904 19.6369 42.3208 16.6372 43.5262 16.9695ZM41.8423 25.6094C43.5262 28.2184 45.1515 30.7286 46.6639 33.0637C48.0995 30.5894 49.6706 27.8771 51.4899 24.7472C54.3206 31.4426 47.472 34.2178 46.6548 39.1394C42.0409 34.6713 39.8424 28.7438 41.8423 25.6094ZM38.9349 31.8962L46.4833 44.573L53.535 30.6523C55.7923 33.9798 55.4357 40.3698 52.7856 43.0507C50.7902 45.0535 48.6503 46.8767 46.709 48.6729C44.4517 46.7105 42.0771 44.7257 39.8017 42.6466C36.8808 39.9881 36.5016 35.4662 38.9349 31.9006V31.8962ZM41.0658 47.5323C43.6391 49.351 44.9483 51.96 45.4224 55.027C43.779 51.493 41.2238 49.0187 37.1607 48.1205L44.1357 55.4941C37.0388 52.2923 32.0367 47.5188 32.0728 39.1394C33.7025 43.4863 37.7115 45.1523 41.0658 47.5323ZM27.1293 45.2601C28.0006 46.5623 28.6598 47.5053 29.2738 48.4618C31.5672 52.0543 34.926 53.9628 39.0478 54.9237C43.3457 55.9296 45.6932 58.6734 46.0905 63.1864C44.7361 59.7376 42.1583 58.8081 39.4451 58.0222C36.9034 57.2813 34.3933 56.4191 31.6936 55.5569C33.2105 58.4129 35.7567 59.6388 38.5738 60.5998C40.2532 61.1746 42.0951 61.6416 43.4495 62.6924C44.8039 63.7432 45.63 65.4496 46.3343 67.183C44.0228 63.6938 40.3886 62.9259 36.777 61.9919C28.7365 59.9307 24.5605 52.8671 27.1293 45.2601ZM45.5307 75.8767C43.1651 74.3814 40.9439 72.5896 38.4338 71.3862C35.4677 69.9761 32.1586 69.2756 29.1699 67.897C23.3552 65.2026 19.9421 58.2423 21.5854 52.0947C21.7235 51.5307 21.967 50.9975 22.3033 50.523C23.7299 58.1255 29.0435 61.1522 35.7476 62.7104C39.3006 63.5322 42.5195 65.0994 44.8264 68.0676C45.5619 69.0206 45.9589 70.1893 45.9551 71.3906C45.4133 70.8158 44.9574 70.0884 44.3073 69.6887C41.9823 68.2607 39.883 66.0514 37.2058 65.6472C33.4314 64.9965 29.8521 63.511 26.7321 61.3003C27.8788 63.2537 27.9555 63.6085 30.3798 65.9346C32.3527 67.8251 34.6055 67.6276 37.2555 68.4134C41.138 69.5675 44.7677 70.9461 46.3478 75.1492C46.4607 75.4546 46.8715 75.6477 46.8941 76.429C46.4229 76.2887 45.9664 76.1037 45.5307 75.8767ZM50.8037 46.9755C53.9007 43.9803 57.7787 41.6227 58.7629 36.8717C60.1173 45.5295 55.7426 51.2415 48.9121 55.6916C50.9226 52.7877 52.9301 49.8793 54.9345 46.9665C50.8714 48.5427 48.6412 51.5064 47.5081 55.4177C47.5081 52.171 48.4381 49.2701 50.8037 46.9755ZM54.4741 56.1676C50.5509 57.2768 50.8624 57.7753 48.6051 60.9411C48.5505 60.9115 48.493 60.8874 48.4336 60.8693C49.1694 59.3964 49.8963 57.91 50.9482 56.72C52.5192 54.9237 54.754 53.7787 56.5598 52.1935C59.3814 49.7147 62.0811 47.1012 64.686 44.6628C66.1352 47.5368 65.1871 53.1949 61.729 56.2485C59.1647 58.4937 56.009 60.1193 53.0791 61.965C51.4493 62.9978 49.7789 63.9588 48.1627 64.9063C48.2202 64.2044 48.477 63.5332 48.9031 62.9708C50.6096 61.2554 51.5847 59.3335 53.4176 58.5746C55.4311 57.7438 57.7652 55.5434 59.2866 53.9942C59.0925 53.8146 56.6726 55.4087 54.4741 56.1676ZM71.9093 57.9639C70.8845 62.2973 67.8462 65.0545 64.0585 66.9719C61.756 68.135 59.2595 68.9298 56.8352 69.801C54.2664 70.6991 51.6615 71.5343 48.3974 72.6211C53.2551 67.4075 61.0382 68.3101 65.2593 62.8137L48.3839 69.7875C48.8128 68.0317 50.3432 66.5633 52.3612 65.5619C54.9255 64.2911 57.5801 63.1909 60.1534 61.9425C65.3858 59.4008 69.038 55.6557 69.4624 48.7672C72.3201 51.8657 72.6678 54.825 71.9093 57.9773V57.9639Z" fill="#D9BEA7"/>
</svg>
