<svg width="111" height="91" viewBox="0 0 111 91" fill="none" xmlns="http://www.w3.org/2000/svg">
<path d="M57.2231 32.7467C53.9945 29.9667 53.7864 27.4184 56.4068 24.2441C56.7782 23.793 57.1619 23.3459 57.5007 22.8704C59.9251 19.4726 59.1088 16.0423 55.4353 14.1686L54.4476 13.6687C54.4589 13.8065 54.4849 13.9428 54.5251 14.0751C55.77 16.4121 55.4884 18.5744 53.7905 20.5781C53.5142 20.9085 53.2632 21.259 53.0394 21.6267C49.9782 26.573 53.0149 31.8566 57.2231 32.7467Z" fill="#D9BEA7"/>
<path d="M50.8557 28.564C48.9986 26.5725 48.9455 24.8126 50.6027 22.691C50.8394 22.3862 51.0802 22.0895 51.2966 21.7684C52.8353 19.4883 52.4394 17.1066 50.2925 15.7329L49.7211 15.363C49.7224 15.4563 49.7347 15.549 49.7578 15.6394C50.0981 16.3651 50.2202 17.1734 50.1094 17.9667C49.9986 18.7601 49.6596 19.5045 49.1333 20.1102C48.9574 20.3329 48.7978 20.5679 48.6557 20.8133C46.6843 24.1339 48.3578 27.8568 50.8557 28.564Z" fill="#D9BEA7"/>
<path d="M58.7864 30.3486C58.2476 29.4423 58.0149 28.5156 58.5455 27.5524C58.8057 27.1247 59.0976 26.7172 59.419 26.3331C59.7329 25.975 59.9349 25.5335 60.0002 25.0627C60.0654 24.5919 59.9911 24.1124 59.7864 23.6831C59.1455 24.561 58.5211 25.447 57.8598 26.3087C56.5986 27.9425 56.8721 29.2797 58.7864 30.3486Z" fill="#D9BEA7"/>
<path d="M11.8109 55.7708V53.6167L11.6925 53.5639C10.9448 53.2294 10.1366 53.0496 9.31698 53.0355C8.79528 53.0153 8.27589 53.1148 7.79891 53.3262C7.32192 53.5376 6.90009 53.8553 6.56596 54.2548C5.83829 55.1934 5.46809 56.3583 5.52107 57.5429C5.52107 58.9329 5.83535 60.0465 6.48841 60.8512C6.81884 61.2556 7.23878 61.5783 7.71534 61.794C8.1919 62.0098 8.71215 62.1128 9.23535 62.0949H9.268C10.1007 62.0874 10.9185 61.8737 11.6476 61.4731L11.7537 61.4162V60.1278L11.4639 60.27C10.801 60.6239 10.0647 60.8201 9.3129 60.8431C8.97532 60.8565 8.63938 60.7898 8.33279 60.6485C8.02621 60.5071 7.75777 60.2952 7.54964 60.0302C7.12107 59.4897 6.90882 58.628 6.91698 57.4738C6.92515 56.3195 7.14147 55.5473 7.5578 55.0352C7.76653 54.7767 8.0356 54.5731 8.34153 54.4421C8.64746 54.311 8.98095 54.2565 9.3129 54.2833C9.7466 54.2782 10.1782 54.3442 10.5905 54.4784V55.7586L11.8109 55.7708Z" fill="#D9BEA7"/>
<path d="M18.4149 62.1601H18.4435C18.929 62.1728 19.4103 62.0685 19.8466 61.8562C20.2829 61.644 20.6613 61.3299 20.9496 60.9408C21.5741 60.1279 21.8925 58.9899 21.9047 57.5512C21.9047 56.1937 21.6313 55.1126 21.0639 54.3322C20.7875 53.9445 20.4195 53.6305 19.9924 53.4179C19.5653 53.2052 19.0923 53.1005 18.6149 53.1129C18.12 53.0948 17.6279 53.1962 17.1809 53.4085C16.7338 53.6209 16.345 53.9378 16.0476 54.3322C15.3757 55.2895 15.0413 56.4415 15.0966 57.6081C15.0966 59.0062 15.3782 60.1198 15.9741 60.9246C16.249 61.3131 16.615 61.6288 17.0405 61.8441C17.4659 62.0595 17.9378 62.168 18.4149 62.1601ZM17.0272 55.0922C17.1922 54.8455 17.4202 54.647 17.6878 54.517C17.9553 54.387 18.2528 54.3302 18.5496 54.3525C18.8423 54.3393 19.1332 54.4048 19.3918 54.5421C19.6503 54.6794 19.867 54.8835 20.019 55.1329C20.4191 55.8808 20.5974 56.7265 20.5333 57.5715C20.5827 58.4543 20.3819 59.3331 19.9537 60.1076C19.7993 60.3608 19.5808 60.5692 19.32 60.7119C19.0593 60.8546 18.7655 60.9265 18.468 60.9205C18.1726 60.9274 17.8807 60.8557 17.6224 60.7128C17.3641 60.5699 17.1488 60.361 16.9986 60.1076C16.5827 59.331 16.3945 58.4536 16.4558 57.5755C16.468 56.4375 16.6598 55.6084 17.0272 55.0922Z" fill="#D9BEA7"/>
<path d="M25.166 60.8834L25.1578 62.0539L28.4884 62.0783L28.4966 60.9118L27.4149 60.8996L27.4353 58.3594L28.7333 58.3716L28.7292 59.2983L29.8966 59.3064L29.917 56.437L28.7496 56.4289L28.7455 57.2011L27.4435 57.193L27.4639 54.4983L29.7986 54.5146L29.7904 55.5957L31.0068 55.6038L31.0231 53.3522L25.2231 53.3115L25.2149 54.478L26.1415 54.4861L26.0925 60.8915L25.166 60.8834Z" fill="#D9BEA7"/>
<path d="M33.6843 60.9487L33.6721 62.1192L37.0027 62.1436L37.0109 60.9731L35.9333 60.965L35.9537 58.4248L37.2517 58.437L37.2435 59.3636L38.4149 59.3718L38.4353 56.5023L37.2639 56.4942L37.2598 57.2664L35.9619 57.2583L35.9823 54.5636L38.3129 54.5799L38.3047 55.661L39.5211 55.6691L39.5374 53.4175L33.7415 53.3728L33.7333 54.5433L34.6558 54.5515L34.6068 60.9568L33.6843 60.9487Z" fill="#D9BEA7"/>
<path d="M42.1986 61.0137L42.1905 62.1842L48.1415 62.2289L48.1578 59.9773L46.9415 59.9691L46.9333 61.0502L44.4476 61.0299L44.468 58.3353L45.6149 58.3434L45.6068 59.2741L46.7741 59.2823L46.7986 56.4128L45.6272 56.4006L45.6231 57.1729L44.4762 57.1647L44.4966 54.6245L46.8272 54.6449L46.819 55.726L48.0354 55.7341L48.0558 53.4825L42.2558 53.4377L42.2476 54.6083L43.1741 54.6164L43.1252 61.0218L42.1986 61.0137Z" fill="#D9BEA7"/>
<path d="M51.1782 61.083L51.166 62.2535L57.1211 62.2982L57.1374 60.0466L55.9211 60.0344L55.9129 61.1196L53.4272 61.0993L53.4476 58.4046L54.5904 58.4127L54.5823 59.3394L55.7537 59.3516L55.7741 56.4781L54.6068 56.47L54.5986 57.2422L53.4558 57.2341L53.4762 54.6939L55.8068 54.7101L55.7986 55.7953L57.0149 55.8034L57.0313 53.5518L51.2353 53.5071L51.2272 54.6776L52.1496 54.6857L52.1007 61.0911L51.1782 61.083Z" fill="#D9BEA7"/>
<path d="M75.0027 56.0961V54.0639L74.8966 54.0111C74.2387 53.6793 73.5116 53.5066 72.7741 53.5071C72.0076 53.4641 71.2503 53.6915 70.6354 54.1493C70.3723 54.3602 70.1618 54.6287 70.0202 54.934C69.8786 55.2393 69.8098 55.573 69.819 55.9091C69.8064 56.2726 69.882 56.6337 70.0394 56.9618C70.1808 57.2445 70.3812 57.4939 70.6272 57.6934C70.8651 57.8851 71.1272 58.045 71.4068 58.1689C71.6789 58.2908 71.951 58.4046 72.2231 58.5103C72.5047 58.6241 72.7619 58.7338 72.9782 58.8436C73.1634 58.9303 73.3363 59.041 73.4925 59.1728C73.6209 59.2864 73.7251 59.4246 73.7986 59.5792C73.9043 59.8213 73.932 60.09 73.8779 60.3484C73.8238 60.6068 73.6906 60.8422 73.4966 61.022C73.1511 61.2698 72.7294 61.3892 72.3047 61.3594C71.8913 61.3657 71.4791 61.3137 71.0803 61.2049V60.006H69.8558V62.0666L69.9741 62.1194C70.685 62.4275 71.4519 62.5866 72.2272 62.5868H72.268C73.0422 62.6246 73.8047 62.3869 74.419 61.9162C74.6916 61.6909 74.9096 61.4072 75.0566 61.0863C75.2036 60.7654 75.2759 60.4155 75.268 60.0629C75.2833 59.6904 75.2135 59.3194 75.0639 58.9777C74.9311 58.6974 74.7422 58.4471 74.5088 58.242C74.2774 58.0441 74.0208 57.8773 73.7456 57.7462C73.4721 57.6121 73.1864 57.4861 72.8925 57.3682L72.117 57.0553C71.9251 56.9812 71.745 56.8799 71.5823 56.7545C71.4548 56.654 71.348 56.5297 71.268 56.3887C71.1925 56.2376 71.1574 56.0696 71.166 55.901C71.1645 55.7463 71.1974 55.5932 71.2623 55.4527C71.3272 55.3121 71.4226 55.1876 71.5415 55.0881C71.8666 54.8338 72.2765 54.7118 72.6884 54.7467C73.0551 54.7457 73.4194 54.8061 73.766 54.9255V56.1001L75.0027 56.0961Z" fill="#D9BEA7"/>
<path d="M78.2966 61.2862L78.2884 62.4568L81.4639 62.4811L81.4721 61.3106L80.5456 61.3066L80.566 58.6078L84.3333 58.6403L84.3129 61.335L83.3864 61.3269L83.3782 62.4974L86.5537 62.5218L86.5619 61.3513L85.6394 61.3431L85.6884 54.9377L86.6109 54.9459L86.619 53.7753L83.4476 53.7509L83.4354 54.9215L84.3619 54.9296L84.3415 57.4698L80.5741 57.4414L80.5945 54.9011L81.5211 54.9052L81.5292 53.7387L78.3537 53.7144L78.3456 54.8849L79.2721 54.889L79.2231 61.2944L78.2966 61.2862Z" fill="#D9BEA7"/>
<path d="M93.2027 62.7456H93.2313C93.7175 62.7592 94.1997 62.6555 94.6369 62.4431C95.074 62.2308 95.453 61.9162 95.7415 61.5263C96.3619 60.7134 96.6802 59.5754 96.6925 58.1366C96.7643 57.0031 96.4697 55.8764 95.8517 54.9217C95.5758 54.5335 95.2079 54.2191 94.7807 54.0064C94.3535 53.7937 93.8802 53.6893 93.4027 53.7024C92.908 53.6825 92.416 53.7832 91.9693 53.9957C91.5226 54.2082 91.1347 54.5261 90.8394 54.9217C90.215 55.7346 89.8966 56.8198 89.8843 58.1976C89.8721 59.5754 90.1701 60.7134 90.7619 61.5141C91.0374 61.9016 91.4038 62.2163 91.8291 62.4309C92.2544 62.6455 92.7259 62.7535 93.2027 62.7456ZM91.8149 55.6777C91.983 55.433 92.2121 55.2362 92.4798 55.1065C92.7475 54.9768 93.0444 54.9187 93.3415 54.938C93.6342 54.9248 93.9251 54.9903 94.1836 55.1276C94.4421 55.2649 94.6588 55.4689 94.8109 55.7183C95.2057 56.468 95.3824 57.3126 95.3211 58.1569C95.3708 59.041 95.17 59.9213 94.7415 60.6971C94.5887 60.9509 94.371 61.1598 94.1108 61.3026C93.8505 61.4454 93.5569 61.5169 93.2598 61.51C92.9643 61.5177 92.6721 61.4464 92.4136 61.3034C92.1552 61.1605 91.94 60.9511 91.7905 60.6971C91.3722 59.9214 91.1839 59.0433 91.2476 58.1651C91.2558 57.0027 91.4476 56.1735 91.8149 55.6574V55.6777Z" fill="#D9BEA7"/>
<path d="M99.9578 61.453V62.6235L103.288 62.6479V61.4774H102.211V59.246H102.737C103.559 59.3048 104.373 59.0522 105.015 58.5388C105.292 58.2665 105.508 57.9389 105.649 57.5774C105.79 57.2159 105.852 56.8288 105.831 56.4416C105.854 56.098 105.804 55.7533 105.684 55.4303C105.564 55.1074 105.376 54.8135 105.133 54.568C104.531 54.0867 103.769 53.85 102.999 53.9055L100.007 53.8811V55.0516H100.929L100.88 61.453H99.9578ZM102.815 58.0714H102.244L102.268 55.0679H102.917C103.35 55.0335 103.782 55.1467 104.141 55.389C104.279 55.5441 104.381 55.7266 104.441 55.9243C104.502 56.1219 104.519 56.3302 104.492 56.5351C104.513 56.7505 104.487 56.9677 104.417 57.1724C104.347 57.3771 104.233 57.5644 104.084 57.7219C103.715 57.9915 103.259 58.1159 102.803 58.0714H102.815Z" fill="#D9BEA7"/>
<path d="M97.1823 48.3697L97.7578 47.8616C99.97 45.9229 99.9292 44.976 97.5659 43.1267C92.8476 39.4363 92.8476 39.4363 96.219 34.4574C97.7823 32.1489 97.3904 30.6329 94.7578 29.8485C89.7129 28.3447 88.3823 28.9056 90.7455 21.8255C90.7904 21.6832 90.8721 21.5532 90.9129 21.419C91.4476 19.5169 90.8721 18.574 88.8476 18.318C87.5823 18.1635 86.2884 18.2611 85.0108 18.196C82.3537 18.0578 81.7455 17.3832 81.6802 14.7495C81.6802 14.1479 81.6802 13.5302 81.6802 12.949C81.6802 8.94966 81.0639 8.47819 77.1904 9.35609C71.8843 10.5754 71.8843 10.5754 69.9292 5.45839C68.6762 2.20692 68.0598 1.98338 65.1088 3.8733C60.3292 6.93375 60.3292 6.93375 56.6925 2.51175C54.5619 -0.0772383 53.6149 -0.0934958 51.5374 2.5849C47.8353 7.35644 48.0149 7.16948 43.2353 3.90988C40.1945 1.83706 39.3782 2.23131 38.219 5.74696C36.8843 9.8113 36.3741 11.5915 31.6558 9.46176C31.2906 9.35767 30.916 9.2896 30.5374 9.25855C27.3741 8.53103 26.6313 8.98624 26.6476 12.132C26.6802 18.318 25.9578 18.257 20.3823 18.2285C17.4068 18.2285 16.7088 19.2324 17.5251 22.0043C19.1986 27.7919 19.1986 27.7919 13.5007 29.8241C10.8639 30.767 10.3578 32.1286 11.9578 34.3802C15.6313 39.5663 15.717 39.4728 10.5333 43.2161C8.29658 44.8418 8.29658 46.1018 10.3945 47.8291C10.6354 48.0242 10.8843 48.2071 11.1374 48.3859H0.333313V50.0401H110.329V48.3859L97.1823 48.3697ZM18.3537 45.4759C18.4075 36.0653 22.194 27.0572 28.8882 20.4142C35.5824 13.7712 44.6417 10.0317 54.0925 10.0105C73.8109 10.0105 89.9619 26.1215 89.8557 45.7766C89.8557 46.6505 89.8109 47.5162 89.7415 48.3737H76.3823C80.3986 45.6669 82.3415 41.7733 80.8027 39.3875C79.9415 38.0544 78.1047 37.4691 75.8149 37.7618C75.9088 37.1887 75.9782 36.6197 76.0313 36.0629C76.0625 35.7189 76.0209 35.3722 75.9091 35.0452C75.7974 34.7183 75.6179 34.4183 75.3823 34.1648C75.14 33.9015 74.8455 33.6912 74.5174 33.5471C74.1893 33.403 73.8348 33.3282 73.4762 33.3276H36.3333C35.9747 33.3282 35.6201 33.403 35.292 33.5471C34.9639 33.6912 34.6695 33.9015 34.4272 34.1648C34.1916 34.4183 34.0121 34.7183 33.9003 35.0452C33.7885 35.3722 33.7469 35.7189 33.7782 36.0629C34.1568 40.5067 35.7552 44.7614 38.3986 48.3615H18.468C18.3905 47.4146 18.3496 46.4513 18.3537 45.4759ZM71.619 48.0364C73.2865 45.6982 74.5235 43.0834 75.2721 40.3142C76.8435 39.9524 78.0802 40.1516 78.5374 40.8506C78.9088 41.4237 78.7578 42.3463 78.1292 43.3827C77.2616 44.6864 76.1178 45.7851 74.7782 46.6017C73.7999 47.2286 72.7359 47.7119 71.619 48.0364ZM15.366 44.7565C15.5762 34.5829 19.8238 24.9062 27.1797 17.8427C34.5356 10.7792 44.4013 6.9037 54.619 7.0638C75.8762 7.26296 93.6762 25.2192 92.7945 47.4186C92.7945 47.7438 92.7578 48.0648 92.7374 48.3819H91.1047C91.1741 47.4715 91.2149 46.5529 91.219 45.6262C91.268 25.394 74.6231 8.77896 54.3129 8.71799C49.4382 8.69606 44.6069 9.63166 40.0958 11.4712C35.5846 13.3108 31.4821 16.0182 28.023 19.4385C24.5639 22.8587 21.8161 26.9247 19.937 31.4037C18.0579 35.8827 17.0844 40.6868 17.0721 45.5409C17.0721 46.5001 17.1129 47.4471 17.1823 48.3859H15.4354C15.37 47.1788 15.3374 45.9758 15.366 44.7565Z" fill="#D9BEA7"/>
<path d="M0.333313 67.9681H17.7945C16.57 72.6949 16.9292 72.7396 22.6109 72.8941C25.7782 72.9794 26.4435 73.6216 26.5945 76.7227C26.8925 82.8883 26.8925 82.8883 32.7823 81.1935C35.468 80.4131 36.4558 80.8561 37.4803 83.4207C37.868 84.3921 38.0803 85.4285 38.4476 86.408C39.2272 88.4808 40.3374 88.9238 42.2843 87.8305C43.4476 87.1802 44.4762 86.2861 45.619 85.587C47.0476 84.705 48.3986 84.5344 49.5374 86.1438C50.3587 87.2975 51.2387 88.4085 52.1741 89.4725C53.4598 90.9397 54.6231 90.9397 55.9333 89.4725C56.7741 88.5215 57.4884 87.4647 58.3047 86.4893C59.8721 84.6116 60.9088 84.4774 62.8966 85.8187C63.9496 86.5259 64.9986 87.2453 66.0762 87.9078C67.766 88.9482 68.8925 88.428 69.5374 86.6194C69.9456 85.4895 70.4966 84.4002 70.7864 83.246C71.3007 81.2138 72.5905 80.5797 74.4884 81.0146C75.6517 81.2829 76.7619 81.7869 77.9088 82.1283C80.2843 82.83 81.5333 81.9535 81.6558 79.4986C81.7129 78.2997 81.7047 77.0966 81.6803 75.8976C81.6476 74.0646 82.6354 73.1501 84.366 72.955C85.1088 72.8697 85.8721 72.955 87.1456 72.955C90.8925 73.2274 92.0149 72.0446 90.3333 67.9966H110.333V66.3464H0.333313V67.9681ZM81.7905 67.9681C75.1619 76.0602 65.0803 81.2219 53.9741 81.0553C48.6881 81.0484 43.4699 79.8704 38.6976 77.6069C33.9253 75.3433 29.7186 72.0509 26.3823 67.9681H81.7905ZM53.9088 84.0182C47.7794 84.0227 41.7376 82.5685 36.287 79.7766C30.8364 76.9847 26.1348 72.9361 22.5741 67.9681H24.6884C28.1548 72.4605 32.6136 76.0977 37.7192 78.5977C42.8247 81.0977 48.4398 82.3934 54.1292 82.3843C66.0068 82.4981 76.6803 76.7918 83.4884 67.9681H85.4598C78.2925 77.7306 66.6803 84.2214 53.9088 84.0182Z" fill="#D9BEA7"/>
</svg>
